G04 #@! TF.GenerationSoftware,KiCad,Pcbnew,5.0.2+dfsg1-1*
G04 #@! TF.CreationDate,2019-03-31T19:45:05+02:00*
G04 #@! TF.ProjectId,gj-adapter,676a2d61-6461-4707-9465-722e6b696361,rev?*
G04 #@! TF.SameCoordinates,Original*
G04 #@! TF.FileFunction,Copper,L1,Top*
G04 #@! TF.FilePolarity,Positive*
%FSLAX46Y46*%
G04 Gerber Fmt 4.6, Leading zero omitted, Abs format (unit mm)*
G04 Created by KiCad (PCBNEW 5.0.2+dfsg1-1) date dom 31 mar 2019 19:45:05 CEST*
%MOMM*%
%LPD*%
G01*
G04 APERTURE LIST*
G04 #@! TA.AperFunction,ComponentPad*
%ADD10O,1.250000X1.050000*%
G04 #@! TD*
G04 #@! TA.AperFunction,SMDPad,CuDef*
%ADD11R,1.350000X0.400000*%
G04 #@! TD*
G04 #@! TA.AperFunction,ComponentPad*
%ADD12O,1.900000X1.524000*%
G04 #@! TD*
G04 #@! TA.AperFunction,SMDPad,CuDef*
%ADD13C,0.500000*%
G04 #@! TD*
G04 #@! TA.AperFunction,Conductor*
%ADD14C,0.100000*%
G04 #@! TD*
G04 #@! TA.AperFunction,ComponentPad*
%ADD15R,1.700000X1.700000*%
G04 #@! TD*
G04 #@! TA.AperFunction,ComponentPad*
%ADD16O,1.700000X1.700000*%
G04 #@! TD*
G04 #@! TA.AperFunction,SMDPad,CuDef*
%ADD17C,0.590000*%
G04 #@! TD*
G04 #@! TA.AperFunction,SMDPad,CuDef*
%ADD18R,1.450000X0.450000*%
G04 #@! TD*
G04 #@! TA.AperFunction,SMDPad,CuDef*
%ADD19R,1.000000X1.000000*%
G04 #@! TD*
G04 #@! TA.AperFunction,ViaPad*
%ADD20C,0.800000*%
G04 #@! TD*
G04 #@! TA.AperFunction,Conductor*
%ADD21C,0.200000*%
G04 #@! TD*
G04 #@! TA.AperFunction,Conductor*
%ADD22C,0.250000*%
G04 #@! TD*
G04 #@! TA.AperFunction,Conductor*
%ADD23C,0.400000*%
G04 #@! TD*
G04 #@! TA.AperFunction,Conductor*
%ADD24C,0.254000*%
G04 #@! TD*
G04 APERTURE END LIST*
D10*
G04 #@! TO.P,J3,8*
G04 #@! TO.N,N/C*
X133879000Y-81261000D03*
G04 #@! TO.P,J3,7*
X133879000Y-86111000D03*
D11*
G04 #@! TO.P,J3,5*
G04 #@! TO.N,GND*
X134104000Y-82386000D03*
G04 #@! TO.P,J3,4*
G04 #@! TO.N,ID-PC*
X134104000Y-83036000D03*
G04 #@! TO.P,J3,3*
G04 #@! TO.N,D+-PC*
X134104000Y-83686000D03*
G04 #@! TO.P,J3,2*
G04 #@! TO.N,D--PC*
X134104000Y-84336000D03*
G04 #@! TO.P,J3,1*
G04 #@! TO.N,VCC*
X134104000Y-84986000D03*
D12*
G04 #@! TO.P,J3,9*
G04 #@! TO.N,N/C*
X136779000Y-80086000D03*
G04 #@! TO.P,J3,6*
G04 #@! TO.N,GND*
X136779000Y-87286000D03*
G04 #@! TD*
D13*
G04 #@! TO.P,J1,1*
G04 #@! TO.N,D+*
X118389400Y-73787000D03*
D14*
G04 #@! TD*
G04 #@! TO.N,D+*
G04 #@! TO.C,J1*
G36*
X119314400Y-74037000D02*
X117464400Y-74037000D01*
X117464400Y-73537000D01*
X119314400Y-73537000D01*
X119314400Y-74037000D01*
X119314400Y-74037000D01*
G37*
D13*
G04 #@! TO.P,J1,2*
G04 #@! TO.N,D-*
X118389400Y-74787000D03*
D14*
G04 #@! TD*
G04 #@! TO.N,D-*
G04 #@! TO.C,J1*
G36*
X119314400Y-75037000D02*
X117464400Y-75037000D01*
X117464400Y-74537000D01*
X119314400Y-74537000D01*
X119314400Y-75037000D01*
X119314400Y-75037000D01*
G37*
D13*
G04 #@! TO.P,J1,3*
G04 #@! TO.N,ID-device*
X118389400Y-75787000D03*
D14*
G04 #@! TD*
G04 #@! TO.N,ID-device*
G04 #@! TO.C,J1*
G36*
X119314400Y-76037000D02*
X117464400Y-76037000D01*
X117464400Y-75537000D01*
X119314400Y-75537000D01*
X119314400Y-76037000D01*
X119314400Y-76037000D01*
G37*
D13*
G04 #@! TO.P,J1,4*
G04 #@! TO.N,N/C*
X118389400Y-76787000D03*
D14*
G04 #@! TD*
G04 #@! TO.N,N/C*
G04 #@! TO.C,J1*
G36*
X119314400Y-77037000D02*
X117464400Y-77037000D01*
X117464400Y-76537000D01*
X119314400Y-76537000D01*
X119314400Y-77037000D01*
X119314400Y-77037000D01*
G37*
D13*
G04 #@! TO.P,J1,5*
G04 #@! TO.N,GND*
X118389400Y-77787000D03*
D14*
G04 #@! TD*
G04 #@! TO.N,GND*
G04 #@! TO.C,J1*
G36*
X119314400Y-78037000D02*
X117464400Y-78037000D01*
X117464400Y-77537000D01*
X119314400Y-77537000D01*
X119314400Y-78037000D01*
X119314400Y-78037000D01*
G37*
D15*
G04 #@! TO.P,J2,1*
G04 #@! TO.N,TX*
X135712200Y-76022200D03*
D16*
G04 #@! TO.P,J2,2*
G04 #@! TO.N,RX*
X135712200Y-73482200D03*
G04 #@! TO.P,J2,3*
G04 #@! TO.N,GND*
X135712200Y-70942200D03*
G04 #@! TO.P,J2,4*
G04 #@! TO.N,Mode*
X135712200Y-68402200D03*
G04 #@! TD*
D14*
G04 #@! TO.N,Net-(R1-Pad1)*
G04 #@! TO.C,R1*
G36*
X120278158Y-83449510D02*
X120292476Y-83451634D01*
X120306517Y-83455151D01*
X120320146Y-83460028D01*
X120333231Y-83466217D01*
X120345647Y-83473658D01*
X120357273Y-83482281D01*
X120367998Y-83492002D01*
X120377719Y-83502727D01*
X120386342Y-83514353D01*
X120393783Y-83526769D01*
X120399972Y-83539854D01*
X120404849Y-83553483D01*
X120408366Y-83567524D01*
X120410490Y-83581842D01*
X120411200Y-83596300D01*
X120411200Y-83891300D01*
X120410490Y-83905758D01*
X120408366Y-83920076D01*
X120404849Y-83934117D01*
X120399972Y-83947746D01*
X120393783Y-83960831D01*
X120386342Y-83973247D01*
X120377719Y-83984873D01*
X120367998Y-83995598D01*
X120357273Y-84005319D01*
X120345647Y-84013942D01*
X120333231Y-84021383D01*
X120320146Y-84027572D01*
X120306517Y-84032449D01*
X120292476Y-84035966D01*
X120278158Y-84038090D01*
X120263700Y-84038800D01*
X119918700Y-84038800D01*
X119904242Y-84038090D01*
X119889924Y-84035966D01*
X119875883Y-84032449D01*
X119862254Y-84027572D01*
X119849169Y-84021383D01*
X119836753Y-84013942D01*
X119825127Y-84005319D01*
X119814402Y-83995598D01*
X119804681Y-83984873D01*
X119796058Y-83973247D01*
X119788617Y-83960831D01*
X119782428Y-83947746D01*
X119777551Y-83934117D01*
X119774034Y-83920076D01*
X119771910Y-83905758D01*
X119771200Y-83891300D01*
X119771200Y-83596300D01*
X119771910Y-83581842D01*
X119774034Y-83567524D01*
X119777551Y-83553483D01*
X119782428Y-83539854D01*
X119788617Y-83526769D01*
X119796058Y-83514353D01*
X119804681Y-83502727D01*
X119814402Y-83492002D01*
X119825127Y-83482281D01*
X119836753Y-83473658D01*
X119849169Y-83466217D01*
X119862254Y-83460028D01*
X119875883Y-83455151D01*
X119889924Y-83451634D01*
X119904242Y-83449510D01*
X119918700Y-83448800D01*
X120263700Y-83448800D01*
X120278158Y-83449510D01*
X120278158Y-83449510D01*
G37*
D17*
G04 #@! TD*
G04 #@! TO.P,R1,1*
G04 #@! TO.N,Net-(R1-Pad1)*
X120091200Y-83743800D03*
D14*
G04 #@! TO.N,GND*
G04 #@! TO.C,R1*
G36*
X120278158Y-84419510D02*
X120292476Y-84421634D01*
X120306517Y-84425151D01*
X120320146Y-84430028D01*
X120333231Y-84436217D01*
X120345647Y-84443658D01*
X120357273Y-84452281D01*
X120367998Y-84462002D01*
X120377719Y-84472727D01*
X120386342Y-84484353D01*
X120393783Y-84496769D01*
X120399972Y-84509854D01*
X120404849Y-84523483D01*
X120408366Y-84537524D01*
X120410490Y-84551842D01*
X120411200Y-84566300D01*
X120411200Y-84861300D01*
X120410490Y-84875758D01*
X120408366Y-84890076D01*
X120404849Y-84904117D01*
X120399972Y-84917746D01*
X120393783Y-84930831D01*
X120386342Y-84943247D01*
X120377719Y-84954873D01*
X120367998Y-84965598D01*
X120357273Y-84975319D01*
X120345647Y-84983942D01*
X120333231Y-84991383D01*
X120320146Y-84997572D01*
X120306517Y-85002449D01*
X120292476Y-85005966D01*
X120278158Y-85008090D01*
X120263700Y-85008800D01*
X119918700Y-85008800D01*
X119904242Y-85008090D01*
X119889924Y-85005966D01*
X119875883Y-85002449D01*
X119862254Y-84997572D01*
X119849169Y-84991383D01*
X119836753Y-84983942D01*
X119825127Y-84975319D01*
X119814402Y-84965598D01*
X119804681Y-84954873D01*
X119796058Y-84943247D01*
X119788617Y-84930831D01*
X119782428Y-84917746D01*
X119777551Y-84904117D01*
X119774034Y-84890076D01*
X119771910Y-84875758D01*
X119771200Y-84861300D01*
X119771200Y-84566300D01*
X119771910Y-84551842D01*
X119774034Y-84537524D01*
X119777551Y-84523483D01*
X119782428Y-84509854D01*
X119788617Y-84496769D01*
X119796058Y-84484353D01*
X119804681Y-84472727D01*
X119814402Y-84462002D01*
X119825127Y-84452281D01*
X119836753Y-84443658D01*
X119849169Y-84436217D01*
X119862254Y-84430028D01*
X119875883Y-84425151D01*
X119889924Y-84421634D01*
X119904242Y-84419510D01*
X119918700Y-84418800D01*
X120263700Y-84418800D01*
X120278158Y-84419510D01*
X120278158Y-84419510D01*
G37*
D17*
G04 #@! TD*
G04 #@! TO.P,R1,2*
G04 #@! TO.N,GND*
X120091200Y-84713800D03*
D18*
G04 #@! TO.P,U1,1*
G04 #@! TO.N,D+*
X122895000Y-72685000D03*
G04 #@! TO.P,U1,2*
G04 #@! TO.N,RX*
X122895000Y-73335000D03*
G04 #@! TO.P,U1,3*
G04 #@! TO.N,Mode*
X122895000Y-73985000D03*
G04 #@! TO.P,U1,4*
G04 #@! TO.N,GND*
X122895000Y-74635000D03*
G04 #@! TO.P,U1,5*
G04 #@! TO.N,D+*
X127295000Y-74635000D03*
G04 #@! TO.P,U1,6*
G04 #@! TO.N,D+-PC*
X127295000Y-73985000D03*
G04 #@! TO.P,U1,7*
G04 #@! TO.N,Mode*
X127295000Y-73335000D03*
G04 #@! TO.P,U1,8*
G04 #@! TO.N,VCC*
X127295000Y-72685000D03*
G04 #@! TD*
G04 #@! TO.P,U2,1*
G04 #@! TO.N,ID-device*
X123250600Y-82921200D03*
G04 #@! TO.P,U2,2*
G04 #@! TO.N,Net-(R1-Pad1)*
X123250600Y-83571200D03*
G04 #@! TO.P,U2,3*
G04 #@! TO.N,Mode*
X123250600Y-84221200D03*
G04 #@! TO.P,U2,4*
G04 #@! TO.N,GND*
X123250600Y-84871200D03*
G04 #@! TO.P,U2,5*
G04 #@! TO.N,ID-device*
X127650600Y-84871200D03*
G04 #@! TO.P,U2,6*
G04 #@! TO.N,ID-PC*
X127650600Y-84221200D03*
G04 #@! TO.P,U2,7*
G04 #@! TO.N,Mode*
X127650600Y-83571200D03*
G04 #@! TO.P,U2,8*
G04 #@! TO.N,VCC*
X127650600Y-82921200D03*
G04 #@! TD*
G04 #@! TO.P,U3,8*
G04 #@! TO.N,VCC*
X127295000Y-76622000D03*
G04 #@! TO.P,U3,7*
G04 #@! TO.N,Mode*
X127295000Y-77272000D03*
G04 #@! TO.P,U3,6*
G04 #@! TO.N,D--PC*
X127295000Y-77922000D03*
G04 #@! TO.P,U3,5*
G04 #@! TO.N,D-*
X127295000Y-78572000D03*
G04 #@! TO.P,U3,4*
G04 #@! TO.N,GND*
X122895000Y-78572000D03*
G04 #@! TO.P,U3,3*
G04 #@! TO.N,Mode*
X122895000Y-77922000D03*
G04 #@! TO.P,U3,2*
G04 #@! TO.N,TX*
X122895000Y-77272000D03*
G04 #@! TO.P,U3,1*
G04 #@! TO.N,D-*
X122895000Y-76622000D03*
G04 #@! TD*
D19*
G04 #@! TO.P,TP1,1*
G04 #@! TO.N,VCC*
X130683000Y-86487000D03*
G04 #@! TD*
D20*
G04 #@! TO.N,GND*
X122174000Y-75565000D03*
X122682000Y-79756000D03*
X118491000Y-80518000D03*
G04 #@! TO.N,TX*
X132969000Y-76073000D03*
X121920000Y-80645000D03*
G04 #@! TO.N,RX*
X121285000Y-74295000D03*
G04 #@! TO.N,Mode*
X125603000Y-72644000D03*
X124139847Y-73980153D03*
X124203347Y-77980653D03*
X125476000Y-76428000D03*
X124533547Y-84254453D03*
X125349000Y-82244600D03*
G04 #@! TO.N,VCC*
X131064000Y-82677000D03*
X129032000Y-82677000D03*
X129413000Y-77470000D03*
G04 #@! TO.N,ID-device*
X120523000Y-78994000D03*
X120523000Y-82169000D03*
G04 #@! TO.N,ID-PC*
X129286000Y-84709000D03*
X136144000Y-84455000D03*
G04 #@! TD*
D21*
G04 #@! TO.N,D+*
X118389400Y-73787000D02*
X118664400Y-74062000D01*
D22*
X121096109Y-72854834D02*
X121131850Y-72797953D01*
X121073921Y-72918243D02*
X121096109Y-72854834D01*
X121066400Y-72985000D02*
X121073921Y-72918243D01*
X121131850Y-72797953D02*
X121179353Y-72750450D01*
X121066400Y-73163477D02*
X121066400Y-72985000D01*
X121299643Y-72692521D02*
X121366400Y-72685000D01*
X121058878Y-73230233D02*
X121066400Y-73163477D01*
X121036690Y-73293642D02*
X121058878Y-73230233D01*
X120953446Y-73398026D02*
X121000949Y-73350523D01*
X120699643Y-73455955D02*
X120766400Y-73463477D01*
X120233156Y-72692521D02*
X120296565Y-72714709D01*
X120353446Y-72750450D02*
X120400949Y-72797953D01*
X121366400Y-72685000D02*
X122895000Y-72685000D01*
X120833156Y-73455955D02*
X120896565Y-73433767D01*
X120636234Y-73433767D02*
X120699643Y-73455955D01*
X118389400Y-73787000D02*
X119064400Y-73787000D01*
X120296565Y-72714709D02*
X120353446Y-72750450D01*
X119064400Y-73787000D02*
X120166400Y-72685000D01*
X120436690Y-72854834D02*
X120458878Y-72918243D01*
X120166400Y-72685000D02*
X120233156Y-72692521D01*
X120458878Y-72918243D02*
X120466400Y-72985000D01*
X120896565Y-73433767D02*
X120953446Y-73398026D01*
X120766400Y-73463477D02*
X120833156Y-73455955D01*
X120579353Y-73398026D02*
X120636234Y-73433767D01*
X121179353Y-72750450D02*
X121236234Y-72714709D01*
X121000949Y-73350523D02*
X121036690Y-73293642D01*
X120400949Y-72797953D02*
X120436690Y-72854834D01*
X120466400Y-72985000D02*
X120466400Y-73163477D01*
X120466400Y-73163477D02*
X120473921Y-73230233D01*
X120473921Y-73230233D02*
X120496109Y-73293642D01*
X120496109Y-73293642D02*
X120531850Y-73350523D01*
X121236234Y-72714709D02*
X121299643Y-72692521D01*
X120531850Y-73350523D02*
X120579353Y-73398026D01*
X126320000Y-74635000D02*
X127295000Y-74635000D01*
X125820000Y-74635000D02*
X126320000Y-74635000D01*
X122895000Y-72685000D02*
X123870000Y-72685000D01*
X123870000Y-72685000D02*
X125820000Y-74635000D01*
G04 #@! TO.N,D-*
X123870000Y-76622000D02*
X122895000Y-76622000D01*
X124370000Y-76622000D02*
X123870000Y-76622000D01*
X126320000Y-78572000D02*
X124370000Y-76622000D01*
X127295000Y-78572000D02*
X126320000Y-78572000D01*
X120820479Y-75564494D02*
X120881004Y-75593642D01*
X120687805Y-75549546D02*
X120754984Y-75549546D01*
X120622311Y-75564494D02*
X120687805Y-75549546D01*
X121920000Y-76622000D02*
X122895000Y-76622000D01*
X120509263Y-75635527D02*
X120561785Y-75593642D01*
X120490409Y-75654382D02*
X120509263Y-75635527D01*
X120754984Y-75549546D02*
X120820479Y-75564494D01*
X120561785Y-75593642D02*
X120622311Y-75564494D01*
X120437886Y-75696267D02*
X120490409Y-75654382D01*
X120179193Y-75725414D02*
X120244687Y-75740363D01*
X120118667Y-75696267D02*
X120179193Y-75725414D01*
X120170981Y-75032721D02*
X120156032Y-75098215D01*
X120085000Y-74787000D02*
X120126885Y-74839522D01*
X120156032Y-74900048D02*
X120170981Y-74965542D01*
X120311866Y-75740363D02*
X120377360Y-75725414D01*
X120085000Y-75211264D02*
X120066145Y-75230118D01*
X120881004Y-75593642D02*
X120933528Y-75635528D01*
X120126885Y-74839522D02*
X120156032Y-74900048D01*
X120156032Y-75098215D02*
X120126885Y-75158741D01*
X120933528Y-75635528D02*
X121920000Y-76622000D01*
X120126885Y-75158741D02*
X120085000Y-75211264D01*
X120024260Y-75282640D02*
X119995112Y-75343166D01*
X120377360Y-75725414D02*
X120437886Y-75696267D01*
X118389400Y-74787000D02*
X120085000Y-74787000D01*
X120170981Y-74965542D02*
X120170981Y-75032721D01*
X120066145Y-75230118D02*
X120024260Y-75282640D01*
X119995112Y-75343166D02*
X119980164Y-75408660D01*
X120244687Y-75740363D02*
X120311866Y-75740363D01*
X120066145Y-75654382D02*
X120118667Y-75696267D01*
X119980164Y-75408660D02*
X119980164Y-75475839D01*
X119980164Y-75475839D02*
X119995112Y-75541334D01*
X119995112Y-75541334D02*
X120024260Y-75601859D01*
X120024260Y-75601859D02*
X120066145Y-75654382D01*
D23*
G04 #@! TO.N,GND*
X122895000Y-74635000D02*
X122895000Y-74844000D01*
X122895000Y-74844000D02*
X122174000Y-75565000D01*
X122895000Y-78572000D02*
X122895000Y-79543000D01*
X122895000Y-79543000D02*
X122682000Y-79756000D01*
X135179000Y-82386000D02*
X135523000Y-82042000D01*
X134104000Y-82386000D02*
X135179000Y-82386000D01*
X118389400Y-78312000D02*
X118491000Y-78413600D01*
X118389400Y-77787000D02*
X118389400Y-78312000D01*
X118491000Y-78413600D02*
X118491000Y-80518000D01*
D22*
G04 #@! TO.N,TX*
X135712200Y-76022200D02*
X133019800Y-76022200D01*
X133019800Y-76022200D02*
X132969000Y-76073000D01*
X121920000Y-77272000D02*
X122895000Y-77272000D01*
X121920000Y-80645000D02*
X121666000Y-79629000D01*
X121666000Y-77526000D02*
X121920000Y-77272000D01*
X121666000Y-79629000D02*
X121666000Y-77526000D01*
G04 #@! TO.N,RX*
X121920000Y-73335000D02*
X122895000Y-73335000D01*
X121679315Y-73335000D02*
X121920000Y-73335000D01*
X121285000Y-73729315D02*
X121679315Y-73335000D01*
X121285000Y-74295000D02*
X121285000Y-73729315D01*
G04 #@! TO.N,Mode*
X126294000Y-73335000D02*
X127295000Y-73335000D01*
X125603000Y-72644000D02*
X126294000Y-73335000D01*
X122895000Y-73985000D02*
X124135000Y-73985000D01*
X124135000Y-73985000D02*
X124139847Y-73980153D01*
X124139847Y-74545838D02*
X125476000Y-75881991D01*
X124139847Y-73980153D02*
X124139847Y-74545838D01*
X126320000Y-77272000D02*
X127295000Y-77272000D01*
X125476000Y-76428000D02*
X126320000Y-77272000D01*
X125476000Y-75881991D02*
X125476000Y-76428000D01*
X122895000Y-77922000D02*
X124144694Y-77922000D01*
X124144694Y-77922000D02*
X124203347Y-77980653D01*
X124203347Y-78546338D02*
X125349000Y-79691991D01*
X124203347Y-77980653D02*
X124203347Y-78546338D01*
X126675600Y-83571200D02*
X127650600Y-83571200D01*
X125349000Y-82244600D02*
X126675600Y-83571200D01*
X125349000Y-79691991D02*
X125349000Y-82244600D01*
X123250600Y-84221200D02*
X124500294Y-84221200D01*
X124500294Y-84221200D02*
X124533547Y-84254453D01*
D23*
G04 #@! TO.N,VCC*
X131064000Y-75329000D02*
X131064000Y-82677000D01*
X128420000Y-72685000D02*
X131064000Y-75329000D01*
X127295000Y-72685000D02*
X128420000Y-72685000D01*
X127894800Y-82677000D02*
X127650600Y-82921200D01*
X129032000Y-82677000D02*
X127894800Y-82677000D01*
X133029000Y-84986000D02*
X134104000Y-84986000D01*
X130775315Y-84986000D02*
X133029000Y-84986000D01*
X129032000Y-83242685D02*
X130775315Y-84986000D01*
X129032000Y-82677000D02*
X129032000Y-83242685D01*
X127295000Y-76622000D02*
X128565000Y-76622000D01*
X128565000Y-76622000D02*
X129413000Y-77470000D01*
X130683000Y-85078315D02*
X130775315Y-84986000D01*
X130683000Y-86487000D02*
X130683000Y-85078315D01*
D22*
G04 #@! TO.N,D--PC*
X129888987Y-83211402D02*
X131013585Y-84336000D01*
X127295000Y-77922000D02*
X128270000Y-77922000D01*
X131013585Y-84336000D02*
X133179000Y-84336000D01*
X128270000Y-77922000D02*
X129888987Y-79540987D01*
X129888987Y-79540987D02*
X129888987Y-83211402D01*
X133179000Y-84336000D02*
X134104000Y-84336000D01*
G04 #@! TO.N,D+-PC*
X133179000Y-83686000D02*
X134104000Y-83686000D01*
X127295000Y-73985000D02*
X128270000Y-73985000D01*
X128270000Y-73985000D02*
X130338998Y-76053998D01*
X130338998Y-76053998D02*
X130338998Y-83025002D01*
X130999996Y-83686000D02*
X133179000Y-83686000D01*
X130338998Y-83025002D02*
X130999996Y-83686000D01*
G04 #@! TO.N,Net-(R1-Pad1)*
X120263800Y-83571200D02*
X120091200Y-83743800D01*
X123250600Y-83571200D02*
X120263800Y-83571200D01*
G04 #@! TO.N,ID-device*
X126675600Y-84871200D02*
X127650600Y-84871200D01*
X126175600Y-84871200D02*
X126675600Y-84871200D01*
X124225600Y-82921200D02*
X126175600Y-84871200D01*
X123250600Y-82921200D02*
X124225600Y-82921200D01*
X118389400Y-75787000D02*
X118499402Y-75787000D01*
X121783200Y-82921200D02*
X123250600Y-82921200D01*
X121158000Y-82296000D02*
X121783200Y-82921200D01*
X121158000Y-78445598D02*
X121071402Y-78445598D01*
X121071402Y-78445598D02*
X120523000Y-78994000D01*
X121158000Y-82238315D02*
X121158000Y-82296000D01*
X121088685Y-82169000D02*
X121158000Y-82238315D01*
X120523000Y-82169000D02*
X121088685Y-82169000D01*
X119414400Y-75787000D02*
X121158000Y-77530600D01*
X118389400Y-75787000D02*
X119414400Y-75787000D01*
X121158000Y-77530600D02*
X121158000Y-78445598D01*
G04 #@! TO.N,ID-PC*
X127650600Y-84221200D02*
X128798200Y-84221200D01*
X128798200Y-84221200D02*
X129286000Y-84709000D01*
X136144000Y-83889315D02*
X135290685Y-83036000D01*
X135029000Y-83036000D02*
X134104000Y-83036000D01*
X135290685Y-83036000D02*
X135029000Y-83036000D01*
X136144000Y-84455000D02*
X136144000Y-83889315D01*
G04 #@! TD*
D24*
G04 #@! TO.N,GND*
G36*
X137542200Y-67184941D02*
X137542201Y-78790181D01*
X137512082Y-78770056D01*
X137104588Y-78689000D01*
X136453412Y-78689000D01*
X136045918Y-78770056D01*
X135583820Y-79078820D01*
X135275056Y-79540918D01*
X135166632Y-80086000D01*
X135275056Y-80631082D01*
X135583820Y-81093180D01*
X136045918Y-81401944D01*
X136453412Y-81483000D01*
X137104588Y-81483000D01*
X137512082Y-81401944D01*
X137542201Y-81381819D01*
X137542201Y-86027279D01*
X137125723Y-85893926D01*
X136906000Y-86044985D01*
X136906000Y-87159000D01*
X136926000Y-87159000D01*
X136926000Y-87413000D01*
X136906000Y-87413000D01*
X136906000Y-87433000D01*
X136652000Y-87433000D01*
X136652000Y-87413000D01*
X135359280Y-87413000D01*
X135236780Y-87629070D01*
X135244151Y-87672083D01*
X135494421Y-88158111D01*
X135911635Y-88511368D01*
X136432277Y-88678074D01*
X136651998Y-88527016D01*
X136651998Y-88657911D01*
X135646710Y-89663200D01*
X117981800Y-89663200D01*
X117981800Y-84999550D01*
X119136200Y-84999550D01*
X119136200Y-85135109D01*
X119232873Y-85368498D01*
X119411501Y-85547127D01*
X119644890Y-85643800D01*
X119805450Y-85643800D01*
X119964200Y-85485050D01*
X119964200Y-84840800D01*
X120218200Y-84840800D01*
X120218200Y-85485050D01*
X120376950Y-85643800D01*
X120537510Y-85643800D01*
X120770899Y-85547127D01*
X120949527Y-85368498D01*
X121046200Y-85135109D01*
X121046200Y-84999550D01*
X120887450Y-84840800D01*
X120218200Y-84840800D01*
X119964200Y-84840800D01*
X119294950Y-84840800D01*
X119136200Y-84999550D01*
X117981800Y-84999550D01*
X117981800Y-78684440D01*
X119314400Y-78684440D01*
X119550392Y-78637499D01*
X119488000Y-78788126D01*
X119488000Y-79199874D01*
X119645569Y-79580280D01*
X119936720Y-79871431D01*
X120317126Y-80029000D01*
X120728874Y-80029000D01*
X120956288Y-79934802D01*
X120960720Y-79941435D01*
X121009812Y-80137803D01*
X120885000Y-80439126D01*
X120885000Y-80850874D01*
X121042569Y-81231280D01*
X121098317Y-81287028D01*
X120728874Y-81134000D01*
X120317126Y-81134000D01*
X119936720Y-81291569D01*
X119645569Y-81582720D01*
X119488000Y-81963126D01*
X119488000Y-82374874D01*
X119645569Y-82755280D01*
X119729319Y-82839030D01*
X119614490Y-82861871D01*
X119356593Y-83034193D01*
X119184271Y-83292090D01*
X119123760Y-83596300D01*
X119123760Y-83891300D01*
X119181708Y-84182625D01*
X119136200Y-84292491D01*
X119136200Y-84428050D01*
X119294950Y-84586800D01*
X119556229Y-84586800D01*
X119614490Y-84625729D01*
X119918700Y-84686240D01*
X120263700Y-84686240D01*
X120567910Y-84625729D01*
X120626171Y-84586800D01*
X120887450Y-84586800D01*
X121046200Y-84428050D01*
X121046200Y-84331200D01*
X121878160Y-84331200D01*
X121878160Y-84446200D01*
X121892098Y-84516273D01*
X121890600Y-84519890D01*
X121890600Y-84599950D01*
X121913247Y-84622597D01*
X121927443Y-84693965D01*
X122067791Y-84904009D01*
X122187056Y-84983700D01*
X122049350Y-84983700D01*
X121890600Y-85142450D01*
X121890600Y-85222510D01*
X121987273Y-85455899D01*
X122165902Y-85634527D01*
X122399291Y-85731200D01*
X122964850Y-85731200D01*
X123123600Y-85572450D01*
X123123600Y-85093640D01*
X123377600Y-85093640D01*
X123377600Y-85572450D01*
X123536350Y-85731200D01*
X124101909Y-85731200D01*
X124335298Y-85634527D01*
X124513927Y-85455899D01*
X124582871Y-85289453D01*
X124739421Y-85289453D01*
X125119827Y-85131884D01*
X125240654Y-85011057D01*
X125585273Y-85355676D01*
X125627671Y-85419129D01*
X125691124Y-85461527D01*
X125691126Y-85461529D01*
X125776065Y-85518283D01*
X125879063Y-85587104D01*
X126100748Y-85631200D01*
X126100752Y-85631200D01*
X126175599Y-85646088D01*
X126250446Y-85631200D01*
X126583315Y-85631200D01*
X126677835Y-85694357D01*
X126925600Y-85743640D01*
X128375600Y-85743640D01*
X128623365Y-85694357D01*
X128752295Y-85608208D01*
X129080126Y-85744000D01*
X129491874Y-85744000D01*
X129616019Y-85692578D01*
X129584843Y-85739235D01*
X129535560Y-85987000D01*
X129535560Y-86987000D01*
X129584843Y-87234765D01*
X129725191Y-87444809D01*
X129935235Y-87585157D01*
X130183000Y-87634440D01*
X131183000Y-87634440D01*
X131430765Y-87585157D01*
X131640809Y-87444809D01*
X131781157Y-87234765D01*
X131830440Y-86987000D01*
X131830440Y-85987000D01*
X131797421Y-85821000D01*
X132653960Y-85821000D01*
X132596275Y-86111000D01*
X132686305Y-86563609D01*
X132942687Y-86947313D01*
X133326391Y-87203695D01*
X133664754Y-87271000D01*
X134093246Y-87271000D01*
X134431609Y-87203695D01*
X134815313Y-86947313D01*
X134818241Y-86942930D01*
X135236780Y-86942930D01*
X135359280Y-87159000D01*
X136652000Y-87159000D01*
X136652000Y-86044985D01*
X136432277Y-85893926D01*
X135911635Y-86060632D01*
X135494421Y-86413889D01*
X135244151Y-86899917D01*
X135236780Y-86942930D01*
X134818241Y-86942930D01*
X135071695Y-86563609D01*
X135161725Y-86111000D01*
X135088506Y-85742903D01*
X135236809Y-85643809D01*
X135377157Y-85433765D01*
X135423926Y-85198637D01*
X135557720Y-85332431D01*
X135938126Y-85490000D01*
X136349874Y-85490000D01*
X136730280Y-85332431D01*
X137021431Y-85041280D01*
X137179000Y-84660874D01*
X137179000Y-84249126D01*
X137021431Y-83868720D01*
X136888314Y-83735603D01*
X136859904Y-83592778D01*
X136691929Y-83341386D01*
X136628473Y-83298986D01*
X135881016Y-82551530D01*
X135838614Y-82488071D01*
X135587222Y-82320096D01*
X135414000Y-82285640D01*
X135414000Y-82258998D01*
X135282252Y-82258998D01*
X135414000Y-82127250D01*
X135414000Y-82059691D01*
X135317327Y-81826302D01*
X135138699Y-81647673D01*
X135088913Y-81627051D01*
X135161725Y-81261000D01*
X135071695Y-80808391D01*
X134815313Y-80424687D01*
X134431609Y-80168305D01*
X134093246Y-80101000D01*
X133664754Y-80101000D01*
X133326391Y-80168305D01*
X132942687Y-80424687D01*
X132686305Y-80808391D01*
X132596275Y-81261000D01*
X132686305Y-81713609D01*
X132841280Y-81945547D01*
X132794000Y-82059691D01*
X132794000Y-82127250D01*
X132952750Y-82286000D01*
X133109164Y-82286000D01*
X132971191Y-82378191D01*
X132830843Y-82588235D01*
X132825958Y-82612792D01*
X132794000Y-82644750D01*
X132794000Y-82712309D01*
X132802217Y-82732147D01*
X132781560Y-82836000D01*
X132781560Y-82926000D01*
X132081137Y-82926000D01*
X132099000Y-82882874D01*
X132099000Y-82471126D01*
X131941431Y-82090720D01*
X131899000Y-82048289D01*
X131899000Y-75867126D01*
X131934000Y-75867126D01*
X131934000Y-76278874D01*
X132091569Y-76659280D01*
X132382720Y-76950431D01*
X132763126Y-77108000D01*
X133174874Y-77108000D01*
X133555280Y-76950431D01*
X133723511Y-76782200D01*
X134214760Y-76782200D01*
X134214760Y-76872200D01*
X134264043Y-77119965D01*
X134404391Y-77330009D01*
X134614435Y-77470357D01*
X134862200Y-77519640D01*
X136562200Y-77519640D01*
X136809965Y-77470357D01*
X137020009Y-77330009D01*
X137160357Y-77119965D01*
X137209640Y-76872200D01*
X137209640Y-75172200D01*
X137160357Y-74924435D01*
X137020009Y-74714391D01*
X136809965Y-74574043D01*
X136764581Y-74565016D01*
X136782825Y-74552825D01*
X137111039Y-74061618D01*
X137226292Y-73482200D01*
X137111039Y-72902782D01*
X136782825Y-72411575D01*
X136463722Y-72198357D01*
X136593558Y-72137383D01*
X136983845Y-71709124D01*
X137153676Y-71299090D01*
X137032355Y-71069200D01*
X135839200Y-71069200D01*
X135839200Y-71089200D01*
X135585200Y-71089200D01*
X135585200Y-71069200D01*
X134392045Y-71069200D01*
X134270724Y-71299090D01*
X134440555Y-71709124D01*
X134830842Y-72137383D01*
X134960678Y-72198357D01*
X134641575Y-72411575D01*
X134313361Y-72902782D01*
X134198108Y-73482200D01*
X134313361Y-74061618D01*
X134641575Y-74552825D01*
X134659819Y-74565016D01*
X134614435Y-74574043D01*
X134404391Y-74714391D01*
X134264043Y-74924435D01*
X134214760Y-75172200D01*
X134214760Y-75262200D01*
X133621911Y-75262200D01*
X133555280Y-75195569D01*
X133174874Y-75038000D01*
X132763126Y-75038000D01*
X132382720Y-75195569D01*
X132091569Y-75486720D01*
X131934000Y-75867126D01*
X131899000Y-75867126D01*
X131899000Y-75411237D01*
X131915358Y-75329000D01*
X131895074Y-75227026D01*
X131850552Y-75003199D01*
X131666001Y-74726999D01*
X131596283Y-74680415D01*
X129068587Y-72152720D01*
X129022001Y-72082999D01*
X128745801Y-71898448D01*
X128502237Y-71850000D01*
X128502233Y-71850000D01*
X128420000Y-71833643D01*
X128337767Y-71850000D01*
X128208226Y-71850000D01*
X128020000Y-71812560D01*
X126570000Y-71812560D01*
X126322235Y-71861843D01*
X126299647Y-71876936D01*
X126189280Y-71766569D01*
X125808874Y-71609000D01*
X125397126Y-71609000D01*
X125016720Y-71766569D01*
X124725569Y-72057720D01*
X124606055Y-72346254D01*
X124460331Y-72200530D01*
X124417929Y-72137071D01*
X124166537Y-71969096D01*
X123969675Y-71929938D01*
X123867765Y-71861843D01*
X123620000Y-71812560D01*
X122170000Y-71812560D01*
X121922235Y-71861843D01*
X121827715Y-71925000D01*
X121398392Y-71925000D01*
X121355696Y-71921398D01*
X121353790Y-71921613D01*
X121343088Y-71918852D01*
X121299541Y-71925000D01*
X121291548Y-71925000D01*
X121272003Y-71928888D01*
X121203996Y-71938489D01*
X121140177Y-71945679D01*
X121129926Y-71948946D01*
X121119281Y-71950449D01*
X121117481Y-71951079D01*
X121106433Y-71950769D01*
X121016525Y-71985089D01*
X120924822Y-72014317D01*
X120916376Y-72021449D01*
X120914569Y-72022081D01*
X120905307Y-72027544D01*
X120895267Y-72031377D01*
X120893652Y-72032391D01*
X120882816Y-72034547D01*
X120802793Y-72088016D01*
X120766400Y-72109484D01*
X120730003Y-72088014D01*
X120649983Y-72034547D01*
X120639147Y-72032391D01*
X120637532Y-72031377D01*
X120627492Y-72027544D01*
X120618230Y-72022081D01*
X120616423Y-72021449D01*
X120607977Y-72014317D01*
X120516269Y-71985088D01*
X120426366Y-71950770D01*
X120415321Y-71951080D01*
X120413518Y-71950449D01*
X120402869Y-71948946D01*
X120392623Y-71945680D01*
X120328824Y-71938492D01*
X120260780Y-71928885D01*
X120166399Y-71910112D01*
X120059994Y-71931277D01*
X119951877Y-71940398D01*
X119912895Y-71960537D01*
X119869862Y-71969097D01*
X119779648Y-72029376D01*
X119683260Y-72079172D01*
X119606383Y-72170214D01*
X118887038Y-72889560D01*
X117981800Y-72889560D01*
X117981800Y-68402200D01*
X134198108Y-68402200D01*
X134313361Y-68981618D01*
X134641575Y-69472825D01*
X134960678Y-69686043D01*
X134830842Y-69747017D01*
X134440555Y-70175276D01*
X134270724Y-70585310D01*
X134392045Y-70815200D01*
X135585200Y-70815200D01*
X135585200Y-70795200D01*
X135839200Y-70795200D01*
X135839200Y-70815200D01*
X137032355Y-70815200D01*
X137153676Y-70585310D01*
X136983845Y-70175276D01*
X136593558Y-69747017D01*
X136463722Y-69686043D01*
X136782825Y-69472825D01*
X137111039Y-68981618D01*
X137226292Y-68402200D01*
X137111039Y-67822782D01*
X136782825Y-67331575D01*
X136291618Y-67003361D01*
X135858456Y-66917200D01*
X135565944Y-66917200D01*
X135132782Y-67003361D01*
X134641575Y-67331575D01*
X134313361Y-67822782D01*
X134198108Y-68402200D01*
X117981800Y-68402200D01*
X117981800Y-64641800D01*
X136166403Y-64641800D01*
X137542200Y-67184941D01*
X137542200Y-67184941D01*
G37*
X137542200Y-67184941D02*
X137542201Y-78790181D01*
X137512082Y-78770056D01*
X137104588Y-78689000D01*
X136453412Y-78689000D01*
X136045918Y-78770056D01*
X135583820Y-79078820D01*
X135275056Y-79540918D01*
X135166632Y-80086000D01*
X135275056Y-80631082D01*
X135583820Y-81093180D01*
X136045918Y-81401944D01*
X136453412Y-81483000D01*
X137104588Y-81483000D01*
X137512082Y-81401944D01*
X137542201Y-81381819D01*
X137542201Y-86027279D01*
X137125723Y-85893926D01*
X136906000Y-86044985D01*
X136906000Y-87159000D01*
X136926000Y-87159000D01*
X136926000Y-87413000D01*
X136906000Y-87413000D01*
X136906000Y-87433000D01*
X136652000Y-87433000D01*
X136652000Y-87413000D01*
X135359280Y-87413000D01*
X135236780Y-87629070D01*
X135244151Y-87672083D01*
X135494421Y-88158111D01*
X135911635Y-88511368D01*
X136432277Y-88678074D01*
X136651998Y-88527016D01*
X136651998Y-88657911D01*
X135646710Y-89663200D01*
X117981800Y-89663200D01*
X117981800Y-84999550D01*
X119136200Y-84999550D01*
X119136200Y-85135109D01*
X119232873Y-85368498D01*
X119411501Y-85547127D01*
X119644890Y-85643800D01*
X119805450Y-85643800D01*
X119964200Y-85485050D01*
X119964200Y-84840800D01*
X120218200Y-84840800D01*
X120218200Y-85485050D01*
X120376950Y-85643800D01*
X120537510Y-85643800D01*
X120770899Y-85547127D01*
X120949527Y-85368498D01*
X121046200Y-85135109D01*
X121046200Y-84999550D01*
X120887450Y-84840800D01*
X120218200Y-84840800D01*
X119964200Y-84840800D01*
X119294950Y-84840800D01*
X119136200Y-84999550D01*
X117981800Y-84999550D01*
X117981800Y-78684440D01*
X119314400Y-78684440D01*
X119550392Y-78637499D01*
X119488000Y-78788126D01*
X119488000Y-79199874D01*
X119645569Y-79580280D01*
X119936720Y-79871431D01*
X120317126Y-80029000D01*
X120728874Y-80029000D01*
X120956288Y-79934802D01*
X120960720Y-79941435D01*
X121009812Y-80137803D01*
X120885000Y-80439126D01*
X120885000Y-80850874D01*
X121042569Y-81231280D01*
X121098317Y-81287028D01*
X120728874Y-81134000D01*
X120317126Y-81134000D01*
X119936720Y-81291569D01*
X119645569Y-81582720D01*
X119488000Y-81963126D01*
X119488000Y-82374874D01*
X119645569Y-82755280D01*
X119729319Y-82839030D01*
X119614490Y-82861871D01*
X119356593Y-83034193D01*
X119184271Y-83292090D01*
X119123760Y-83596300D01*
X119123760Y-83891300D01*
X119181708Y-84182625D01*
X119136200Y-84292491D01*
X119136200Y-84428050D01*
X119294950Y-84586800D01*
X119556229Y-84586800D01*
X119614490Y-84625729D01*
X119918700Y-84686240D01*
X120263700Y-84686240D01*
X120567910Y-84625729D01*
X120626171Y-84586800D01*
X120887450Y-84586800D01*
X121046200Y-84428050D01*
X121046200Y-84331200D01*
X121878160Y-84331200D01*
X121878160Y-84446200D01*
X121892098Y-84516273D01*
X121890600Y-84519890D01*
X121890600Y-84599950D01*
X121913247Y-84622597D01*
X121927443Y-84693965D01*
X122067791Y-84904009D01*
X122187056Y-84983700D01*
X122049350Y-84983700D01*
X121890600Y-85142450D01*
X121890600Y-85222510D01*
X121987273Y-85455899D01*
X122165902Y-85634527D01*
X122399291Y-85731200D01*
X122964850Y-85731200D01*
X123123600Y-85572450D01*
X123123600Y-85093640D01*
X123377600Y-85093640D01*
X123377600Y-85572450D01*
X123536350Y-85731200D01*
X124101909Y-85731200D01*
X124335298Y-85634527D01*
X124513927Y-85455899D01*
X124582871Y-85289453D01*
X124739421Y-85289453D01*
X125119827Y-85131884D01*
X125240654Y-85011057D01*
X125585273Y-85355676D01*
X125627671Y-85419129D01*
X125691124Y-85461527D01*
X125691126Y-85461529D01*
X125776065Y-85518283D01*
X125879063Y-85587104D01*
X126100748Y-85631200D01*
X126100752Y-85631200D01*
X126175599Y-85646088D01*
X126250446Y-85631200D01*
X126583315Y-85631200D01*
X126677835Y-85694357D01*
X126925600Y-85743640D01*
X128375600Y-85743640D01*
X128623365Y-85694357D01*
X128752295Y-85608208D01*
X129080126Y-85744000D01*
X129491874Y-85744000D01*
X129616019Y-85692578D01*
X129584843Y-85739235D01*
X129535560Y-85987000D01*
X129535560Y-86987000D01*
X129584843Y-87234765D01*
X129725191Y-87444809D01*
X129935235Y-87585157D01*
X130183000Y-87634440D01*
X131183000Y-87634440D01*
X131430765Y-87585157D01*
X131640809Y-87444809D01*
X131781157Y-87234765D01*
X131830440Y-86987000D01*
X131830440Y-85987000D01*
X131797421Y-85821000D01*
X132653960Y-85821000D01*
X132596275Y-86111000D01*
X132686305Y-86563609D01*
X132942687Y-86947313D01*
X133326391Y-87203695D01*
X133664754Y-87271000D01*
X134093246Y-87271000D01*
X134431609Y-87203695D01*
X134815313Y-86947313D01*
X134818241Y-86942930D01*
X135236780Y-86942930D01*
X135359280Y-87159000D01*
X136652000Y-87159000D01*
X136652000Y-86044985D01*
X136432277Y-85893926D01*
X135911635Y-86060632D01*
X135494421Y-86413889D01*
X135244151Y-86899917D01*
X135236780Y-86942930D01*
X134818241Y-86942930D01*
X135071695Y-86563609D01*
X135161725Y-86111000D01*
X135088506Y-85742903D01*
X135236809Y-85643809D01*
X135377157Y-85433765D01*
X135423926Y-85198637D01*
X135557720Y-85332431D01*
X135938126Y-85490000D01*
X136349874Y-85490000D01*
X136730280Y-85332431D01*
X137021431Y-85041280D01*
X137179000Y-84660874D01*
X137179000Y-84249126D01*
X137021431Y-83868720D01*
X136888314Y-83735603D01*
X136859904Y-83592778D01*
X136691929Y-83341386D01*
X136628473Y-83298986D01*
X135881016Y-82551530D01*
X135838614Y-82488071D01*
X135587222Y-82320096D01*
X135414000Y-82285640D01*
X135414000Y-82258998D01*
X135282252Y-82258998D01*
X135414000Y-82127250D01*
X135414000Y-82059691D01*
X135317327Y-81826302D01*
X135138699Y-81647673D01*
X135088913Y-81627051D01*
X135161725Y-81261000D01*
X135071695Y-80808391D01*
X134815313Y-80424687D01*
X134431609Y-80168305D01*
X134093246Y-80101000D01*
X133664754Y-80101000D01*
X133326391Y-80168305D01*
X132942687Y-80424687D01*
X132686305Y-80808391D01*
X132596275Y-81261000D01*
X132686305Y-81713609D01*
X132841280Y-81945547D01*
X132794000Y-82059691D01*
X132794000Y-82127250D01*
X132952750Y-82286000D01*
X133109164Y-82286000D01*
X132971191Y-82378191D01*
X132830843Y-82588235D01*
X132825958Y-82612792D01*
X132794000Y-82644750D01*
X132794000Y-82712309D01*
X132802217Y-82732147D01*
X132781560Y-82836000D01*
X132781560Y-82926000D01*
X132081137Y-82926000D01*
X132099000Y-82882874D01*
X132099000Y-82471126D01*
X131941431Y-82090720D01*
X131899000Y-82048289D01*
X131899000Y-75867126D01*
X131934000Y-75867126D01*
X131934000Y-76278874D01*
X132091569Y-76659280D01*
X132382720Y-76950431D01*
X132763126Y-77108000D01*
X133174874Y-77108000D01*
X133555280Y-76950431D01*
X133723511Y-76782200D01*
X134214760Y-76782200D01*
X134214760Y-76872200D01*
X134264043Y-77119965D01*
X134404391Y-77330009D01*
X134614435Y-77470357D01*
X134862200Y-77519640D01*
X136562200Y-77519640D01*
X136809965Y-77470357D01*
X137020009Y-77330009D01*
X137160357Y-77119965D01*
X137209640Y-76872200D01*
X137209640Y-75172200D01*
X137160357Y-74924435D01*
X137020009Y-74714391D01*
X136809965Y-74574043D01*
X136764581Y-74565016D01*
X136782825Y-74552825D01*
X137111039Y-74061618D01*
X137226292Y-73482200D01*
X137111039Y-72902782D01*
X136782825Y-72411575D01*
X136463722Y-72198357D01*
X136593558Y-72137383D01*
X136983845Y-71709124D01*
X137153676Y-71299090D01*
X137032355Y-71069200D01*
X135839200Y-71069200D01*
X135839200Y-71089200D01*
X135585200Y-71089200D01*
X135585200Y-71069200D01*
X134392045Y-71069200D01*
X134270724Y-71299090D01*
X134440555Y-71709124D01*
X134830842Y-72137383D01*
X134960678Y-72198357D01*
X134641575Y-72411575D01*
X134313361Y-72902782D01*
X134198108Y-73482200D01*
X134313361Y-74061618D01*
X134641575Y-74552825D01*
X134659819Y-74565016D01*
X134614435Y-74574043D01*
X134404391Y-74714391D01*
X134264043Y-74924435D01*
X134214760Y-75172200D01*
X134214760Y-75262200D01*
X133621911Y-75262200D01*
X133555280Y-75195569D01*
X133174874Y-75038000D01*
X132763126Y-75038000D01*
X132382720Y-75195569D01*
X132091569Y-75486720D01*
X131934000Y-75867126D01*
X131899000Y-75867126D01*
X131899000Y-75411237D01*
X131915358Y-75329000D01*
X131895074Y-75227026D01*
X131850552Y-75003199D01*
X131666001Y-74726999D01*
X131596283Y-74680415D01*
X129068587Y-72152720D01*
X129022001Y-72082999D01*
X128745801Y-71898448D01*
X128502237Y-71850000D01*
X128502233Y-71850000D01*
X128420000Y-71833643D01*
X128337767Y-71850000D01*
X128208226Y-71850000D01*
X128020000Y-71812560D01*
X126570000Y-71812560D01*
X126322235Y-71861843D01*
X126299647Y-71876936D01*
X126189280Y-71766569D01*
X125808874Y-71609000D01*
X125397126Y-71609000D01*
X125016720Y-71766569D01*
X124725569Y-72057720D01*
X124606055Y-72346254D01*
X124460331Y-72200530D01*
X124417929Y-72137071D01*
X124166537Y-71969096D01*
X123969675Y-71929938D01*
X123867765Y-71861843D01*
X123620000Y-71812560D01*
X122170000Y-71812560D01*
X121922235Y-71861843D01*
X121827715Y-71925000D01*
X121398392Y-71925000D01*
X121355696Y-71921398D01*
X121353790Y-71921613D01*
X121343088Y-71918852D01*
X121299541Y-71925000D01*
X121291548Y-71925000D01*
X121272003Y-71928888D01*
X121203996Y-71938489D01*
X121140177Y-71945679D01*
X121129926Y-71948946D01*
X121119281Y-71950449D01*
X121117481Y-71951079D01*
X121106433Y-71950769D01*
X121016525Y-71985089D01*
X120924822Y-72014317D01*
X120916376Y-72021449D01*
X120914569Y-72022081D01*
X120905307Y-72027544D01*
X120895267Y-72031377D01*
X120893652Y-72032391D01*
X120882816Y-72034547D01*
X120802793Y-72088016D01*
X120766400Y-72109484D01*
X120730003Y-72088014D01*
X120649983Y-72034547D01*
X120639147Y-72032391D01*
X120637532Y-72031377D01*
X120627492Y-72027544D01*
X120618230Y-72022081D01*
X120616423Y-72021449D01*
X120607977Y-72014317D01*
X120516269Y-71985088D01*
X120426366Y-71950770D01*
X120415321Y-71951080D01*
X120413518Y-71950449D01*
X120402869Y-71948946D01*
X120392623Y-71945680D01*
X120328824Y-71938492D01*
X120260780Y-71928885D01*
X120166399Y-71910112D01*
X120059994Y-71931277D01*
X119951877Y-71940398D01*
X119912895Y-71960537D01*
X119869862Y-71969097D01*
X119779648Y-72029376D01*
X119683260Y-72079172D01*
X119606383Y-72170214D01*
X118887038Y-72889560D01*
X117981800Y-72889560D01*
X117981800Y-68402200D01*
X134198108Y-68402200D01*
X134313361Y-68981618D01*
X134641575Y-69472825D01*
X134960678Y-69686043D01*
X134830842Y-69747017D01*
X134440555Y-70175276D01*
X134270724Y-70585310D01*
X134392045Y-70815200D01*
X135585200Y-70815200D01*
X135585200Y-70795200D01*
X135839200Y-70795200D01*
X135839200Y-70815200D01*
X137032355Y-70815200D01*
X137153676Y-70585310D01*
X136983845Y-70175276D01*
X136593558Y-69747017D01*
X136463722Y-69686043D01*
X136782825Y-69472825D01*
X137111039Y-68981618D01*
X137226292Y-68402200D01*
X137111039Y-67822782D01*
X136782825Y-67331575D01*
X136291618Y-67003361D01*
X135858456Y-66917200D01*
X135565944Y-66917200D01*
X135132782Y-67003361D01*
X134641575Y-67331575D01*
X134313361Y-67822782D01*
X134198108Y-68402200D01*
X117981800Y-68402200D01*
X117981800Y-64641800D01*
X136166403Y-64641800D01*
X137542200Y-67184941D01*
G36*
X123022000Y-79273250D02*
X123180750Y-79432000D01*
X123746309Y-79432000D01*
X123935742Y-79353534D01*
X124589000Y-80006793D01*
X124589001Y-81540888D01*
X124471569Y-81658320D01*
X124314000Y-82038726D01*
X124314000Y-82158604D01*
X124223365Y-82098043D01*
X123975600Y-82048760D01*
X122525600Y-82048760D01*
X122277835Y-82098043D01*
X122183315Y-82161200D01*
X122098002Y-82161200D01*
X121864489Y-81927687D01*
X121705929Y-81690386D01*
X121664378Y-81662622D01*
X121661395Y-81658158D01*
X121714126Y-81680000D01*
X122125874Y-81680000D01*
X122506280Y-81522431D01*
X122797431Y-81231280D01*
X122955000Y-80850874D01*
X122955000Y-80439126D01*
X122797431Y-80058720D01*
X122506280Y-79767569D01*
X122481462Y-79757289D01*
X122426000Y-79535440D01*
X122426000Y-79432000D01*
X122609250Y-79432000D01*
X122768000Y-79273250D01*
X122768000Y-78794440D01*
X123022000Y-78794440D01*
X123022000Y-79273250D01*
X123022000Y-79273250D01*
G37*
X123022000Y-79273250D02*
X123180750Y-79432000D01*
X123746309Y-79432000D01*
X123935742Y-79353534D01*
X124589000Y-80006793D01*
X124589001Y-81540888D01*
X124471569Y-81658320D01*
X124314000Y-82038726D01*
X124314000Y-82158604D01*
X124223365Y-82098043D01*
X123975600Y-82048760D01*
X122525600Y-82048760D01*
X122277835Y-82098043D01*
X122183315Y-82161200D01*
X122098002Y-82161200D01*
X121864489Y-81927687D01*
X121705929Y-81690386D01*
X121664378Y-81662622D01*
X121661395Y-81658158D01*
X121714126Y-81680000D01*
X122125874Y-81680000D01*
X122506280Y-81522431D01*
X122797431Y-81231280D01*
X122955000Y-80850874D01*
X122955000Y-80439126D01*
X122797431Y-80058720D01*
X122506280Y-79767569D01*
X122481462Y-79757289D01*
X122426000Y-79535440D01*
X122426000Y-79432000D01*
X122609250Y-79432000D01*
X122768000Y-79273250D01*
X122768000Y-78794440D01*
X123022000Y-78794440D01*
X123022000Y-79273250D01*
G36*
X123022000Y-75336250D02*
X123180750Y-75495000D01*
X123746309Y-75495000D01*
X123935742Y-75416534D01*
X124366930Y-75847723D01*
X124295153Y-75862000D01*
X123962285Y-75862000D01*
X123867765Y-75798843D01*
X123620000Y-75749560D01*
X122170000Y-75749560D01*
X122130265Y-75757464D01*
X121640729Y-75267928D01*
X121668429Y-75256455D01*
X121810302Y-75398327D01*
X122043691Y-75495000D01*
X122609250Y-75495000D01*
X122768000Y-75336250D01*
X122768000Y-74857440D01*
X123022000Y-74857440D01*
X123022000Y-75336250D01*
X123022000Y-75336250D01*
G37*
X123022000Y-75336250D02*
X123180750Y-75495000D01*
X123746309Y-75495000D01*
X123935742Y-75416534D01*
X124366930Y-75847723D01*
X124295153Y-75862000D01*
X123962285Y-75862000D01*
X123867765Y-75798843D01*
X123620000Y-75749560D01*
X122170000Y-75749560D01*
X122130265Y-75757464D01*
X121640729Y-75267928D01*
X121668429Y-75256455D01*
X121810302Y-75398327D01*
X122043691Y-75495000D01*
X122609250Y-75495000D01*
X122768000Y-75336250D01*
X122768000Y-74857440D01*
X123022000Y-74857440D01*
X123022000Y-75336250D01*
G04 #@! TD*
M02*
