G04 #@! TF.GenerationSoftware,KiCad,Pcbnew,5.0.2+dfsg1-1*
G04 #@! TF.CreationDate,2019-03-31T19:45:05+02:00*
G04 #@! TF.ProjectId,gj-adapter,676a2d61-6461-4707-9465-722e6b696361,rev?*
G04 #@! TF.SameCoordinates,Original*
G04 #@! TF.FileFunction,Copper,L2,Bot*
G04 #@! TF.FilePolarity,Positive*
%FSLAX46Y46*%
G04 Gerber Fmt 4.6, Leading zero omitted, Abs format (unit mm)*
G04 Created by KiCad (PCBNEW 5.0.2+dfsg1-1) date dom 31 mar 2019 19:45:05 CEST*
%MOMM*%
%LPD*%
G01*
G04 APERTURE LIST*
G04 #@! TA.AperFunction,ComponentPad*
%ADD10O,1.250000X1.050000*%
G04 #@! TD*
G04 #@! TA.AperFunction,ComponentPad*
%ADD11O,1.900000X1.524000*%
G04 #@! TD*
G04 #@! TA.AperFunction,ComponentPad*
%ADD12R,1.700000X1.700000*%
G04 #@! TD*
G04 #@! TA.AperFunction,ComponentPad*
%ADD13O,1.700000X1.700000*%
G04 #@! TD*
G04 #@! TA.AperFunction,ViaPad*
%ADD14C,0.800000*%
G04 #@! TD*
G04 #@! TA.AperFunction,Conductor*
%ADD15C,0.250000*%
G04 #@! TD*
G04 #@! TA.AperFunction,Conductor*
%ADD16C,0.400000*%
G04 #@! TD*
G04 #@! TA.AperFunction,Conductor*
%ADD17C,0.254000*%
G04 #@! TD*
G04 APERTURE END LIST*
D10*
G04 #@! TO.P,J3,8*
G04 #@! TO.N,N/C*
X133879000Y-81261000D03*
G04 #@! TO.P,J3,7*
X133879000Y-86111000D03*
D11*
G04 #@! TO.P,J3,9*
X136779000Y-80086000D03*
G04 #@! TO.P,J3,6*
G04 #@! TO.N,GND*
X136779000Y-87286000D03*
G04 #@! TD*
D12*
G04 #@! TO.P,J2,1*
G04 #@! TO.N,TX*
X135712200Y-76022200D03*
D13*
G04 #@! TO.P,J2,2*
G04 #@! TO.N,RX*
X135712200Y-73482200D03*
G04 #@! TO.P,J2,3*
G04 #@! TO.N,GND*
X135712200Y-70942200D03*
G04 #@! TO.P,J2,4*
G04 #@! TO.N,Mode*
X135712200Y-68402200D03*
G04 #@! TD*
D14*
G04 #@! TO.N,GND*
X122174000Y-75565000D03*
X122682000Y-79756000D03*
X118491000Y-80518000D03*
G04 #@! TO.N,TX*
X132969000Y-76073000D03*
X121920000Y-80645000D03*
G04 #@! TO.N,RX*
X121285000Y-74295000D03*
G04 #@! TO.N,Mode*
X125603000Y-72644000D03*
X124139847Y-73980153D03*
X124203347Y-77980653D03*
X125476000Y-76428000D03*
X124533547Y-84254453D03*
X125349000Y-82244600D03*
G04 #@! TO.N,VCC*
X131064000Y-82677000D03*
X129032000Y-82677000D03*
X129413000Y-77470000D03*
G04 #@! TO.N,ID-device*
X120523000Y-78994000D03*
X120523000Y-82169000D03*
G04 #@! TO.N,ID-PC*
X129286000Y-84709000D03*
X136144000Y-84455000D03*
G04 #@! TD*
D15*
G04 #@! TO.N,TX*
X128905000Y-76073000D02*
X132969000Y-76073000D01*
X128651000Y-76327000D02*
X128905000Y-76073000D01*
X121920000Y-80645000D02*
X128016000Y-80645000D01*
X128651000Y-78232000D02*
X128651000Y-76327000D01*
X128016000Y-80645000D02*
X128651000Y-78232000D01*
G04 #@! TO.N,RX*
X121695154Y-74705154D02*
X121285000Y-74295000D01*
X134510119Y-73482200D02*
X133287165Y-74705154D01*
X133287165Y-74705154D02*
X121695154Y-74705154D01*
X135712200Y-73482200D02*
X134510119Y-73482200D01*
G04 #@! TO.N,Mode*
X134510119Y-68402200D02*
X132173319Y-70739000D01*
X135712200Y-68402200D02*
X134510119Y-68402200D01*
X132173319Y-70739000D02*
X127508000Y-70739000D01*
X127508000Y-70739000D02*
X125603000Y-72644000D01*
X124266847Y-73980153D02*
X125603000Y-72644000D01*
X124139847Y-73980153D02*
X124266847Y-73980153D01*
X124203347Y-77980653D02*
X124203347Y-77700653D01*
X124203347Y-77700653D02*
X125476000Y-76428000D01*
X124533547Y-84254453D02*
X124533547Y-83060053D01*
X124533547Y-83060053D02*
X125349000Y-82244600D01*
D16*
G04 #@! TO.N,VCC*
X131064000Y-82677000D02*
X129032000Y-82677000D01*
X129413000Y-82296000D02*
X129032000Y-82677000D01*
X129413000Y-77470000D02*
X129413000Y-82296000D01*
D15*
G04 #@! TO.N,ID-device*
X120523000Y-78994000D02*
X120523000Y-82169000D01*
G04 #@! TO.N,ID-PC*
X129286000Y-84709000D02*
X135890000Y-84709000D01*
X135890000Y-84709000D02*
X136144000Y-84455000D01*
G04 #@! TD*
D17*
G04 #@! TO.N,GND*
G36*
X137542200Y-67184941D02*
X137542201Y-78790181D01*
X137512082Y-78770056D01*
X137104588Y-78689000D01*
X136453412Y-78689000D01*
X136045918Y-78770056D01*
X135583820Y-79078820D01*
X135275056Y-79540918D01*
X135166632Y-80086000D01*
X135275056Y-80631082D01*
X135583820Y-81093180D01*
X136045918Y-81401944D01*
X136453412Y-81483000D01*
X137104588Y-81483000D01*
X137512082Y-81401944D01*
X137542201Y-81381819D01*
X137542201Y-86027279D01*
X137125723Y-85893926D01*
X136906000Y-86044985D01*
X136906000Y-87159000D01*
X136926000Y-87159000D01*
X136926000Y-87413000D01*
X136906000Y-87413000D01*
X136906000Y-87433000D01*
X136652000Y-87433000D01*
X136652000Y-87413000D01*
X135359280Y-87413000D01*
X135236780Y-87629070D01*
X135244151Y-87672083D01*
X135494421Y-88158111D01*
X135911635Y-88511368D01*
X136432277Y-88678074D01*
X136651998Y-88527016D01*
X136651998Y-88657911D01*
X135646710Y-89663200D01*
X117981800Y-89663200D01*
X117981800Y-78788126D01*
X119488000Y-78788126D01*
X119488000Y-79199874D01*
X119645569Y-79580280D01*
X119763000Y-79697711D01*
X119763001Y-81465288D01*
X119645569Y-81582720D01*
X119488000Y-81963126D01*
X119488000Y-82374874D01*
X119645569Y-82755280D01*
X119936720Y-83046431D01*
X120317126Y-83204000D01*
X120728874Y-83204000D01*
X121109280Y-83046431D01*
X121400431Y-82755280D01*
X121558000Y-82374874D01*
X121558000Y-81963126D01*
X121400431Y-81582720D01*
X121344683Y-81526972D01*
X121714126Y-81680000D01*
X122125874Y-81680000D01*
X122506280Y-81522431D01*
X122623711Y-81405000D01*
X124724889Y-81405000D01*
X124471569Y-81658320D01*
X124314000Y-82038726D01*
X124314000Y-82204799D01*
X124049075Y-82469724D01*
X123985619Y-82512124D01*
X123817644Y-82763516D01*
X123781766Y-82943889D01*
X123758659Y-83060053D01*
X123773548Y-83134904D01*
X123773548Y-83550741D01*
X123656116Y-83668173D01*
X123498547Y-84048579D01*
X123498547Y-84460327D01*
X123656116Y-84840733D01*
X123947267Y-85131884D01*
X124327673Y-85289453D01*
X124739421Y-85289453D01*
X125119827Y-85131884D01*
X125410978Y-84840733D01*
X125568547Y-84460327D01*
X125568547Y-84048579D01*
X125410978Y-83668173D01*
X125293547Y-83550742D01*
X125293547Y-83374854D01*
X125388801Y-83279600D01*
X125554874Y-83279600D01*
X125935280Y-83122031D01*
X126226431Y-82830880D01*
X126384000Y-82450474D01*
X126384000Y-82038726D01*
X126226431Y-81658320D01*
X125973111Y-81405000D01*
X127992833Y-81405000D01*
X128120580Y-81412799D01*
X128214795Y-81380346D01*
X128312537Y-81360904D01*
X128356481Y-81331542D01*
X128406443Y-81314332D01*
X128481066Y-81248296D01*
X128563929Y-81192929D01*
X128578001Y-81171869D01*
X128578001Y-81744777D01*
X128445720Y-81799569D01*
X128154569Y-82090720D01*
X127997000Y-82471126D01*
X127997000Y-82882874D01*
X128154569Y-83263280D01*
X128445720Y-83554431D01*
X128826126Y-83712000D01*
X128988386Y-83712000D01*
X128699720Y-83831569D01*
X128408569Y-84122720D01*
X128251000Y-84503126D01*
X128251000Y-84914874D01*
X128408569Y-85295280D01*
X128699720Y-85586431D01*
X129080126Y-85744000D01*
X129491874Y-85744000D01*
X129872280Y-85586431D01*
X129989711Y-85469000D01*
X132812852Y-85469000D01*
X132686305Y-85658391D01*
X132596275Y-86111000D01*
X132686305Y-86563609D01*
X132942687Y-86947313D01*
X133326391Y-87203695D01*
X133664754Y-87271000D01*
X134093246Y-87271000D01*
X134431609Y-87203695D01*
X134815313Y-86947313D01*
X134818241Y-86942930D01*
X135236780Y-86942930D01*
X135359280Y-87159000D01*
X136652000Y-87159000D01*
X136652000Y-86044985D01*
X136432277Y-85893926D01*
X135911635Y-86060632D01*
X135494421Y-86413889D01*
X135244151Y-86899917D01*
X135236780Y-86942930D01*
X134818241Y-86942930D01*
X135071695Y-86563609D01*
X135161725Y-86111000D01*
X135071695Y-85658391D01*
X134945148Y-85469000D01*
X135815153Y-85469000D01*
X135890000Y-85483888D01*
X135912544Y-85479404D01*
X135938126Y-85490000D01*
X136349874Y-85490000D01*
X136730280Y-85332431D01*
X137021431Y-85041280D01*
X137179000Y-84660874D01*
X137179000Y-84249126D01*
X137021431Y-83868720D01*
X136730280Y-83577569D01*
X136349874Y-83420000D01*
X135938126Y-83420000D01*
X135557720Y-83577569D01*
X135266569Y-83868720D01*
X135233316Y-83949000D01*
X129989711Y-83949000D01*
X129872280Y-83831569D01*
X129491874Y-83674000D01*
X129329614Y-83674000D01*
X129618280Y-83554431D01*
X129660711Y-83512000D01*
X130435289Y-83512000D01*
X130477720Y-83554431D01*
X130858126Y-83712000D01*
X131269874Y-83712000D01*
X131650280Y-83554431D01*
X131941431Y-83263280D01*
X132099000Y-82882874D01*
X132099000Y-82471126D01*
X131941431Y-82090720D01*
X131650280Y-81799569D01*
X131269874Y-81642000D01*
X130858126Y-81642000D01*
X130477720Y-81799569D01*
X130435289Y-81842000D01*
X130248000Y-81842000D01*
X130248000Y-81261000D01*
X132596275Y-81261000D01*
X132686305Y-81713609D01*
X132942687Y-82097313D01*
X133326391Y-82353695D01*
X133664754Y-82421000D01*
X134093246Y-82421000D01*
X134431609Y-82353695D01*
X134815313Y-82097313D01*
X135071695Y-81713609D01*
X135161725Y-81261000D01*
X135071695Y-80808391D01*
X134815313Y-80424687D01*
X134431609Y-80168305D01*
X134093246Y-80101000D01*
X133664754Y-80101000D01*
X133326391Y-80168305D01*
X132942687Y-80424687D01*
X132686305Y-80808391D01*
X132596275Y-81261000D01*
X130248000Y-81261000D01*
X130248000Y-78098711D01*
X130290431Y-78056280D01*
X130448000Y-77675874D01*
X130448000Y-77264126D01*
X130290431Y-76883720D01*
X130239711Y-76833000D01*
X132265289Y-76833000D01*
X132382720Y-76950431D01*
X132763126Y-77108000D01*
X133174874Y-77108000D01*
X133555280Y-76950431D01*
X133846431Y-76659280D01*
X134004000Y-76278874D01*
X134004000Y-75867126D01*
X133846431Y-75486720D01*
X133701835Y-75342124D01*
X133835094Y-75253083D01*
X133877496Y-75189624D01*
X134590594Y-74476527D01*
X134641575Y-74552825D01*
X134659819Y-74565016D01*
X134614435Y-74574043D01*
X134404391Y-74714391D01*
X134264043Y-74924435D01*
X134214760Y-75172200D01*
X134214760Y-76872200D01*
X134264043Y-77119965D01*
X134404391Y-77330009D01*
X134614435Y-77470357D01*
X134862200Y-77519640D01*
X136562200Y-77519640D01*
X136809965Y-77470357D01*
X137020009Y-77330009D01*
X137160357Y-77119965D01*
X137209640Y-76872200D01*
X137209640Y-75172200D01*
X137160357Y-74924435D01*
X137020009Y-74714391D01*
X136809965Y-74574043D01*
X136764581Y-74565016D01*
X136782825Y-74552825D01*
X137111039Y-74061618D01*
X137226292Y-73482200D01*
X137111039Y-72902782D01*
X136782825Y-72411575D01*
X136463722Y-72198357D01*
X136593558Y-72137383D01*
X136983845Y-71709124D01*
X137153676Y-71299090D01*
X137032355Y-71069200D01*
X135839200Y-71069200D01*
X135839200Y-71089200D01*
X135585200Y-71089200D01*
X135585200Y-71069200D01*
X134392045Y-71069200D01*
X134270724Y-71299090D01*
X134440555Y-71709124D01*
X134830842Y-72137383D01*
X134960678Y-72198357D01*
X134641575Y-72411575D01*
X134433831Y-72722486D01*
X134213582Y-72766296D01*
X133962190Y-72934271D01*
X133919790Y-72997727D01*
X132972364Y-73945154D01*
X125376647Y-73945154D01*
X125642802Y-73679000D01*
X125808874Y-73679000D01*
X126189280Y-73521431D01*
X126480431Y-73230280D01*
X126638000Y-72849874D01*
X126638000Y-72683801D01*
X127822802Y-71499000D01*
X132098472Y-71499000D01*
X132173319Y-71513888D01*
X132248166Y-71499000D01*
X132248171Y-71499000D01*
X132469856Y-71454904D01*
X132721248Y-71286929D01*
X132763650Y-71223470D01*
X134590594Y-69396527D01*
X134641575Y-69472825D01*
X134960678Y-69686043D01*
X134830842Y-69747017D01*
X134440555Y-70175276D01*
X134270724Y-70585310D01*
X134392045Y-70815200D01*
X135585200Y-70815200D01*
X135585200Y-70795200D01*
X135839200Y-70795200D01*
X135839200Y-70815200D01*
X137032355Y-70815200D01*
X137153676Y-70585310D01*
X136983845Y-70175276D01*
X136593558Y-69747017D01*
X136463722Y-69686043D01*
X136782825Y-69472825D01*
X137111039Y-68981618D01*
X137226292Y-68402200D01*
X137111039Y-67822782D01*
X136782825Y-67331575D01*
X136291618Y-67003361D01*
X135858456Y-66917200D01*
X135565944Y-66917200D01*
X135132782Y-67003361D01*
X134641575Y-67331575D01*
X134433831Y-67642486D01*
X134213582Y-67686296D01*
X133962190Y-67854271D01*
X133919790Y-67917727D01*
X131858518Y-69979000D01*
X127582848Y-69979000D01*
X127508000Y-69964112D01*
X127433152Y-69979000D01*
X127433148Y-69979000D01*
X127259605Y-70013520D01*
X127211462Y-70023096D01*
X127024418Y-70148076D01*
X126960071Y-70191071D01*
X126917671Y-70254527D01*
X125563199Y-71609000D01*
X125397126Y-71609000D01*
X125016720Y-71766569D01*
X124725569Y-72057720D01*
X124568000Y-72438126D01*
X124568000Y-72604198D01*
X124227046Y-72945153D01*
X123933973Y-72945153D01*
X123553567Y-73102722D01*
X123262416Y-73393873D01*
X123104847Y-73774279D01*
X123104847Y-73945154D01*
X122260365Y-73945154D01*
X122162431Y-73708720D01*
X121871280Y-73417569D01*
X121490874Y-73260000D01*
X121079126Y-73260000D01*
X120698720Y-73417569D01*
X120407569Y-73708720D01*
X120250000Y-74089126D01*
X120250000Y-74500874D01*
X120407569Y-74881280D01*
X120698720Y-75172431D01*
X121079126Y-75330000D01*
X121262339Y-75330000D01*
X121398617Y-75421058D01*
X121620302Y-75465154D01*
X121620306Y-75465154D01*
X121695153Y-75480042D01*
X121770000Y-75465154D01*
X125095930Y-75465154D01*
X124889720Y-75550569D01*
X124598569Y-75841720D01*
X124441000Y-76222126D01*
X124441000Y-76388198D01*
X123802987Y-77026211D01*
X123617067Y-77103222D01*
X123325916Y-77394373D01*
X123168347Y-77774779D01*
X123168347Y-78186527D01*
X123325916Y-78566933D01*
X123617067Y-78858084D01*
X123997473Y-79015653D01*
X124409221Y-79015653D01*
X124789627Y-78858084D01*
X125080778Y-78566933D01*
X125238347Y-78186527D01*
X125238347Y-77774779D01*
X125228294Y-77750508D01*
X125515802Y-77463000D01*
X125681874Y-77463000D01*
X126062280Y-77305431D01*
X126353431Y-77014280D01*
X126511000Y-76633874D01*
X126511000Y-76222126D01*
X126353431Y-75841720D01*
X126062280Y-75550569D01*
X125856070Y-75465154D01*
X128446743Y-75465154D01*
X128357071Y-75525071D01*
X128314669Y-75588530D01*
X128166528Y-75736671D01*
X128103072Y-75779071D01*
X128060672Y-75842527D01*
X128060671Y-75842528D01*
X127935097Y-76030463D01*
X127876112Y-76327000D01*
X127891001Y-76401852D01*
X127891000Y-78133675D01*
X127430126Y-79885000D01*
X122623711Y-79885000D01*
X122506280Y-79767569D01*
X122125874Y-79610000D01*
X121714126Y-79610000D01*
X121333720Y-79767569D01*
X121283000Y-79818289D01*
X121283000Y-79697711D01*
X121400431Y-79580280D01*
X121558000Y-79199874D01*
X121558000Y-78788126D01*
X121400431Y-78407720D01*
X121109280Y-78116569D01*
X120728874Y-77959000D01*
X120317126Y-77959000D01*
X119936720Y-78116569D01*
X119645569Y-78407720D01*
X119488000Y-78788126D01*
X117981800Y-78788126D01*
X117981800Y-64641800D01*
X136166403Y-64641800D01*
X137542200Y-67184941D01*
X137542200Y-67184941D01*
G37*
X137542200Y-67184941D02*
X137542201Y-78790181D01*
X137512082Y-78770056D01*
X137104588Y-78689000D01*
X136453412Y-78689000D01*
X136045918Y-78770056D01*
X135583820Y-79078820D01*
X135275056Y-79540918D01*
X135166632Y-80086000D01*
X135275056Y-80631082D01*
X135583820Y-81093180D01*
X136045918Y-81401944D01*
X136453412Y-81483000D01*
X137104588Y-81483000D01*
X137512082Y-81401944D01*
X137542201Y-81381819D01*
X137542201Y-86027279D01*
X137125723Y-85893926D01*
X136906000Y-86044985D01*
X136906000Y-87159000D01*
X136926000Y-87159000D01*
X136926000Y-87413000D01*
X136906000Y-87413000D01*
X136906000Y-87433000D01*
X136652000Y-87433000D01*
X136652000Y-87413000D01*
X135359280Y-87413000D01*
X135236780Y-87629070D01*
X135244151Y-87672083D01*
X135494421Y-88158111D01*
X135911635Y-88511368D01*
X136432277Y-88678074D01*
X136651998Y-88527016D01*
X136651998Y-88657911D01*
X135646710Y-89663200D01*
X117981800Y-89663200D01*
X117981800Y-78788126D01*
X119488000Y-78788126D01*
X119488000Y-79199874D01*
X119645569Y-79580280D01*
X119763000Y-79697711D01*
X119763001Y-81465288D01*
X119645569Y-81582720D01*
X119488000Y-81963126D01*
X119488000Y-82374874D01*
X119645569Y-82755280D01*
X119936720Y-83046431D01*
X120317126Y-83204000D01*
X120728874Y-83204000D01*
X121109280Y-83046431D01*
X121400431Y-82755280D01*
X121558000Y-82374874D01*
X121558000Y-81963126D01*
X121400431Y-81582720D01*
X121344683Y-81526972D01*
X121714126Y-81680000D01*
X122125874Y-81680000D01*
X122506280Y-81522431D01*
X122623711Y-81405000D01*
X124724889Y-81405000D01*
X124471569Y-81658320D01*
X124314000Y-82038726D01*
X124314000Y-82204799D01*
X124049075Y-82469724D01*
X123985619Y-82512124D01*
X123817644Y-82763516D01*
X123781766Y-82943889D01*
X123758659Y-83060053D01*
X123773548Y-83134904D01*
X123773548Y-83550741D01*
X123656116Y-83668173D01*
X123498547Y-84048579D01*
X123498547Y-84460327D01*
X123656116Y-84840733D01*
X123947267Y-85131884D01*
X124327673Y-85289453D01*
X124739421Y-85289453D01*
X125119827Y-85131884D01*
X125410978Y-84840733D01*
X125568547Y-84460327D01*
X125568547Y-84048579D01*
X125410978Y-83668173D01*
X125293547Y-83550742D01*
X125293547Y-83374854D01*
X125388801Y-83279600D01*
X125554874Y-83279600D01*
X125935280Y-83122031D01*
X126226431Y-82830880D01*
X126384000Y-82450474D01*
X126384000Y-82038726D01*
X126226431Y-81658320D01*
X125973111Y-81405000D01*
X127992833Y-81405000D01*
X128120580Y-81412799D01*
X128214795Y-81380346D01*
X128312537Y-81360904D01*
X128356481Y-81331542D01*
X128406443Y-81314332D01*
X128481066Y-81248296D01*
X128563929Y-81192929D01*
X128578001Y-81171869D01*
X128578001Y-81744777D01*
X128445720Y-81799569D01*
X128154569Y-82090720D01*
X127997000Y-82471126D01*
X127997000Y-82882874D01*
X128154569Y-83263280D01*
X128445720Y-83554431D01*
X128826126Y-83712000D01*
X128988386Y-83712000D01*
X128699720Y-83831569D01*
X128408569Y-84122720D01*
X128251000Y-84503126D01*
X128251000Y-84914874D01*
X128408569Y-85295280D01*
X128699720Y-85586431D01*
X129080126Y-85744000D01*
X129491874Y-85744000D01*
X129872280Y-85586431D01*
X129989711Y-85469000D01*
X132812852Y-85469000D01*
X132686305Y-85658391D01*
X132596275Y-86111000D01*
X132686305Y-86563609D01*
X132942687Y-86947313D01*
X133326391Y-87203695D01*
X133664754Y-87271000D01*
X134093246Y-87271000D01*
X134431609Y-87203695D01*
X134815313Y-86947313D01*
X134818241Y-86942930D01*
X135236780Y-86942930D01*
X135359280Y-87159000D01*
X136652000Y-87159000D01*
X136652000Y-86044985D01*
X136432277Y-85893926D01*
X135911635Y-86060632D01*
X135494421Y-86413889D01*
X135244151Y-86899917D01*
X135236780Y-86942930D01*
X134818241Y-86942930D01*
X135071695Y-86563609D01*
X135161725Y-86111000D01*
X135071695Y-85658391D01*
X134945148Y-85469000D01*
X135815153Y-85469000D01*
X135890000Y-85483888D01*
X135912544Y-85479404D01*
X135938126Y-85490000D01*
X136349874Y-85490000D01*
X136730280Y-85332431D01*
X137021431Y-85041280D01*
X137179000Y-84660874D01*
X137179000Y-84249126D01*
X137021431Y-83868720D01*
X136730280Y-83577569D01*
X136349874Y-83420000D01*
X135938126Y-83420000D01*
X135557720Y-83577569D01*
X135266569Y-83868720D01*
X135233316Y-83949000D01*
X129989711Y-83949000D01*
X129872280Y-83831569D01*
X129491874Y-83674000D01*
X129329614Y-83674000D01*
X129618280Y-83554431D01*
X129660711Y-83512000D01*
X130435289Y-83512000D01*
X130477720Y-83554431D01*
X130858126Y-83712000D01*
X131269874Y-83712000D01*
X131650280Y-83554431D01*
X131941431Y-83263280D01*
X132099000Y-82882874D01*
X132099000Y-82471126D01*
X131941431Y-82090720D01*
X131650280Y-81799569D01*
X131269874Y-81642000D01*
X130858126Y-81642000D01*
X130477720Y-81799569D01*
X130435289Y-81842000D01*
X130248000Y-81842000D01*
X130248000Y-81261000D01*
X132596275Y-81261000D01*
X132686305Y-81713609D01*
X132942687Y-82097313D01*
X133326391Y-82353695D01*
X133664754Y-82421000D01*
X134093246Y-82421000D01*
X134431609Y-82353695D01*
X134815313Y-82097313D01*
X135071695Y-81713609D01*
X135161725Y-81261000D01*
X135071695Y-80808391D01*
X134815313Y-80424687D01*
X134431609Y-80168305D01*
X134093246Y-80101000D01*
X133664754Y-80101000D01*
X133326391Y-80168305D01*
X132942687Y-80424687D01*
X132686305Y-80808391D01*
X132596275Y-81261000D01*
X130248000Y-81261000D01*
X130248000Y-78098711D01*
X130290431Y-78056280D01*
X130448000Y-77675874D01*
X130448000Y-77264126D01*
X130290431Y-76883720D01*
X130239711Y-76833000D01*
X132265289Y-76833000D01*
X132382720Y-76950431D01*
X132763126Y-77108000D01*
X133174874Y-77108000D01*
X133555280Y-76950431D01*
X133846431Y-76659280D01*
X134004000Y-76278874D01*
X134004000Y-75867126D01*
X133846431Y-75486720D01*
X133701835Y-75342124D01*
X133835094Y-75253083D01*
X133877496Y-75189624D01*
X134590594Y-74476527D01*
X134641575Y-74552825D01*
X134659819Y-74565016D01*
X134614435Y-74574043D01*
X134404391Y-74714391D01*
X134264043Y-74924435D01*
X134214760Y-75172200D01*
X134214760Y-76872200D01*
X134264043Y-77119965D01*
X134404391Y-77330009D01*
X134614435Y-77470357D01*
X134862200Y-77519640D01*
X136562200Y-77519640D01*
X136809965Y-77470357D01*
X137020009Y-77330009D01*
X137160357Y-77119965D01*
X137209640Y-76872200D01*
X137209640Y-75172200D01*
X137160357Y-74924435D01*
X137020009Y-74714391D01*
X136809965Y-74574043D01*
X136764581Y-74565016D01*
X136782825Y-74552825D01*
X137111039Y-74061618D01*
X137226292Y-73482200D01*
X137111039Y-72902782D01*
X136782825Y-72411575D01*
X136463722Y-72198357D01*
X136593558Y-72137383D01*
X136983845Y-71709124D01*
X137153676Y-71299090D01*
X137032355Y-71069200D01*
X135839200Y-71069200D01*
X135839200Y-71089200D01*
X135585200Y-71089200D01*
X135585200Y-71069200D01*
X134392045Y-71069200D01*
X134270724Y-71299090D01*
X134440555Y-71709124D01*
X134830842Y-72137383D01*
X134960678Y-72198357D01*
X134641575Y-72411575D01*
X134433831Y-72722486D01*
X134213582Y-72766296D01*
X133962190Y-72934271D01*
X133919790Y-72997727D01*
X132972364Y-73945154D01*
X125376647Y-73945154D01*
X125642802Y-73679000D01*
X125808874Y-73679000D01*
X126189280Y-73521431D01*
X126480431Y-73230280D01*
X126638000Y-72849874D01*
X126638000Y-72683801D01*
X127822802Y-71499000D01*
X132098472Y-71499000D01*
X132173319Y-71513888D01*
X132248166Y-71499000D01*
X132248171Y-71499000D01*
X132469856Y-71454904D01*
X132721248Y-71286929D01*
X132763650Y-71223470D01*
X134590594Y-69396527D01*
X134641575Y-69472825D01*
X134960678Y-69686043D01*
X134830842Y-69747017D01*
X134440555Y-70175276D01*
X134270724Y-70585310D01*
X134392045Y-70815200D01*
X135585200Y-70815200D01*
X135585200Y-70795200D01*
X135839200Y-70795200D01*
X135839200Y-70815200D01*
X137032355Y-70815200D01*
X137153676Y-70585310D01*
X136983845Y-70175276D01*
X136593558Y-69747017D01*
X136463722Y-69686043D01*
X136782825Y-69472825D01*
X137111039Y-68981618D01*
X137226292Y-68402200D01*
X137111039Y-67822782D01*
X136782825Y-67331575D01*
X136291618Y-67003361D01*
X135858456Y-66917200D01*
X135565944Y-66917200D01*
X135132782Y-67003361D01*
X134641575Y-67331575D01*
X134433831Y-67642486D01*
X134213582Y-67686296D01*
X133962190Y-67854271D01*
X133919790Y-67917727D01*
X131858518Y-69979000D01*
X127582848Y-69979000D01*
X127508000Y-69964112D01*
X127433152Y-69979000D01*
X127433148Y-69979000D01*
X127259605Y-70013520D01*
X127211462Y-70023096D01*
X127024418Y-70148076D01*
X126960071Y-70191071D01*
X126917671Y-70254527D01*
X125563199Y-71609000D01*
X125397126Y-71609000D01*
X125016720Y-71766569D01*
X124725569Y-72057720D01*
X124568000Y-72438126D01*
X124568000Y-72604198D01*
X124227046Y-72945153D01*
X123933973Y-72945153D01*
X123553567Y-73102722D01*
X123262416Y-73393873D01*
X123104847Y-73774279D01*
X123104847Y-73945154D01*
X122260365Y-73945154D01*
X122162431Y-73708720D01*
X121871280Y-73417569D01*
X121490874Y-73260000D01*
X121079126Y-73260000D01*
X120698720Y-73417569D01*
X120407569Y-73708720D01*
X120250000Y-74089126D01*
X120250000Y-74500874D01*
X120407569Y-74881280D01*
X120698720Y-75172431D01*
X121079126Y-75330000D01*
X121262339Y-75330000D01*
X121398617Y-75421058D01*
X121620302Y-75465154D01*
X121620306Y-75465154D01*
X121695153Y-75480042D01*
X121770000Y-75465154D01*
X125095930Y-75465154D01*
X124889720Y-75550569D01*
X124598569Y-75841720D01*
X124441000Y-76222126D01*
X124441000Y-76388198D01*
X123802987Y-77026211D01*
X123617067Y-77103222D01*
X123325916Y-77394373D01*
X123168347Y-77774779D01*
X123168347Y-78186527D01*
X123325916Y-78566933D01*
X123617067Y-78858084D01*
X123997473Y-79015653D01*
X124409221Y-79015653D01*
X124789627Y-78858084D01*
X125080778Y-78566933D01*
X125238347Y-78186527D01*
X125238347Y-77774779D01*
X125228294Y-77750508D01*
X125515802Y-77463000D01*
X125681874Y-77463000D01*
X126062280Y-77305431D01*
X126353431Y-77014280D01*
X126511000Y-76633874D01*
X126511000Y-76222126D01*
X126353431Y-75841720D01*
X126062280Y-75550569D01*
X125856070Y-75465154D01*
X128446743Y-75465154D01*
X128357071Y-75525071D01*
X128314669Y-75588530D01*
X128166528Y-75736671D01*
X128103072Y-75779071D01*
X128060672Y-75842527D01*
X128060671Y-75842528D01*
X127935097Y-76030463D01*
X127876112Y-76327000D01*
X127891001Y-76401852D01*
X127891000Y-78133675D01*
X127430126Y-79885000D01*
X122623711Y-79885000D01*
X122506280Y-79767569D01*
X122125874Y-79610000D01*
X121714126Y-79610000D01*
X121333720Y-79767569D01*
X121283000Y-79818289D01*
X121283000Y-79697711D01*
X121400431Y-79580280D01*
X121558000Y-79199874D01*
X121558000Y-78788126D01*
X121400431Y-78407720D01*
X121109280Y-78116569D01*
X120728874Y-77959000D01*
X120317126Y-77959000D01*
X119936720Y-78116569D01*
X119645569Y-78407720D01*
X119488000Y-78788126D01*
X117981800Y-78788126D01*
X117981800Y-64641800D01*
X136166403Y-64641800D01*
X137542200Y-67184941D01*
G04 #@! TD*
M02*
