G04 #@! TF.GenerationSoftware,KiCad,Pcbnew,5.0.2+dfsg1-1*
G04 #@! TF.CreationDate,2019-03-31T19:45:05+02:00*
G04 #@! TF.ProjectId,gj-adapter,676a2d61-6461-4707-9465-722e6b696361,rev?*
G04 #@! TF.SameCoordinates,Original*
G04 #@! TF.FileFunction,Soldermask,Bot*
G04 #@! TF.FilePolarity,Negative*
%FSLAX46Y46*%
G04 Gerber Fmt 4.6, Leading zero omitted, Abs format (unit mm)*
G04 Created by KiCad (PCBNEW 5.0.2+dfsg1-1) date dom 31 mar 2019 19:45:05 CEST*
%MOMM*%
%LPD*%
G01*
G04 APERTURE LIST*
%ADD10C,0.100000*%
G04 APERTURE END LIST*
D10*
G36*
X137093767Y-86432315D02*
X137135981Y-86436473D01*
X137213236Y-86459908D01*
X137298470Y-86485763D01*
X137448220Y-86565807D01*
X137579475Y-86673525D01*
X137687193Y-86804780D01*
X137767237Y-86954530D01*
X137816527Y-87117020D01*
X137833170Y-87286000D01*
X137816527Y-87454980D01*
X137767237Y-87617470D01*
X137687193Y-87767220D01*
X137579475Y-87898475D01*
X137448220Y-88006193D01*
X137298470Y-88086237D01*
X137217225Y-88110882D01*
X137135981Y-88135527D01*
X137093767Y-88139685D01*
X137009341Y-88148000D01*
X136548659Y-88148000D01*
X136464233Y-88139685D01*
X136422019Y-88135527D01*
X136340775Y-88110882D01*
X136259530Y-88086237D01*
X136109780Y-88006193D01*
X135978525Y-87898475D01*
X135870807Y-87767220D01*
X135790763Y-87617470D01*
X135741473Y-87454980D01*
X135724830Y-87286000D01*
X135741473Y-87117020D01*
X135790763Y-86954530D01*
X135870807Y-86804780D01*
X135978525Y-86673525D01*
X136109780Y-86565807D01*
X136259530Y-86485763D01*
X136344764Y-86459908D01*
X136422019Y-86436473D01*
X136464233Y-86432315D01*
X136548659Y-86424000D01*
X137009341Y-86424000D01*
X137093767Y-86432315D01*
X137093767Y-86432315D01*
G37*
G36*
X134101521Y-85495043D02*
X134219334Y-85530781D01*
X134327911Y-85588817D01*
X134423080Y-85666920D01*
X134501183Y-85762089D01*
X134559219Y-85870666D01*
X134594957Y-85988479D01*
X134607024Y-86111000D01*
X134594957Y-86233521D01*
X134559219Y-86351334D01*
X134501183Y-86459911D01*
X134423080Y-86555080D01*
X134327911Y-86633183D01*
X134219334Y-86691219D01*
X134101521Y-86726957D01*
X134009704Y-86736000D01*
X133748296Y-86736000D01*
X133656479Y-86726957D01*
X133538666Y-86691219D01*
X133430089Y-86633183D01*
X133334920Y-86555080D01*
X133256817Y-86459911D01*
X133198781Y-86351334D01*
X133163043Y-86233521D01*
X133150976Y-86111000D01*
X133163043Y-85988479D01*
X133198781Y-85870666D01*
X133256817Y-85762089D01*
X133334920Y-85666920D01*
X133430089Y-85588817D01*
X133538666Y-85530781D01*
X133656479Y-85495043D01*
X133748296Y-85486000D01*
X134009704Y-85486000D01*
X134101521Y-85495043D01*
X134101521Y-85495043D01*
G37*
G36*
X134101521Y-80645043D02*
X134219334Y-80680781D01*
X134327911Y-80738817D01*
X134423080Y-80816920D01*
X134501183Y-80912089D01*
X134559219Y-81020666D01*
X134594957Y-81138479D01*
X134607024Y-81261000D01*
X134594957Y-81383521D01*
X134559219Y-81501334D01*
X134501183Y-81609911D01*
X134423080Y-81705080D01*
X134327911Y-81783183D01*
X134219334Y-81841219D01*
X134101521Y-81876957D01*
X134009704Y-81886000D01*
X133748296Y-81886000D01*
X133656479Y-81876957D01*
X133538666Y-81841219D01*
X133430089Y-81783183D01*
X133334920Y-81705080D01*
X133256817Y-81609911D01*
X133198781Y-81501334D01*
X133163043Y-81383521D01*
X133150976Y-81261000D01*
X133163043Y-81138479D01*
X133198781Y-81020666D01*
X133256817Y-80912089D01*
X133334920Y-80816920D01*
X133430089Y-80738817D01*
X133538666Y-80680781D01*
X133656479Y-80645043D01*
X133748296Y-80636000D01*
X134009704Y-80636000D01*
X134101521Y-80645043D01*
X134101521Y-80645043D01*
G37*
G36*
X137093767Y-79232315D02*
X137135981Y-79236473D01*
X137217225Y-79261118D01*
X137298470Y-79285763D01*
X137448220Y-79365807D01*
X137579475Y-79473525D01*
X137687193Y-79604780D01*
X137767237Y-79754530D01*
X137816527Y-79917020D01*
X137833170Y-80086000D01*
X137816527Y-80254980D01*
X137767237Y-80417470D01*
X137687193Y-80567220D01*
X137579475Y-80698475D01*
X137448220Y-80806193D01*
X137298470Y-80886237D01*
X137217225Y-80910882D01*
X137135981Y-80935527D01*
X137093767Y-80939685D01*
X137009341Y-80948000D01*
X136548659Y-80948000D01*
X136464233Y-80939685D01*
X136422019Y-80935527D01*
X136340775Y-80910882D01*
X136259530Y-80886237D01*
X136109780Y-80806193D01*
X135978525Y-80698475D01*
X135870807Y-80567220D01*
X135790763Y-80417470D01*
X135741473Y-80254980D01*
X135724830Y-80086000D01*
X135741473Y-79917020D01*
X135790763Y-79754530D01*
X135870807Y-79604780D01*
X135978525Y-79473525D01*
X136109780Y-79365807D01*
X136259530Y-79285763D01*
X136340775Y-79261118D01*
X136422019Y-79236473D01*
X136464233Y-79232315D01*
X136548659Y-79224000D01*
X137009341Y-79224000D01*
X137093767Y-79232315D01*
X137093767Y-79232315D01*
G37*
G36*
X136613200Y-76923200D02*
X134811200Y-76923200D01*
X134811200Y-75121200D01*
X136613200Y-75121200D01*
X136613200Y-76923200D01*
X136613200Y-76923200D01*
G37*
G36*
X135822643Y-72587719D02*
X135888827Y-72594237D01*
X136002053Y-72628584D01*
X136058667Y-72645757D01*
X136197287Y-72719852D01*
X136215191Y-72729422D01*
X136250929Y-72758752D01*
X136352386Y-72842014D01*
X136435648Y-72943471D01*
X136464978Y-72979209D01*
X136464979Y-72979211D01*
X136548643Y-73135733D01*
X136548643Y-73135734D01*
X136600163Y-73305573D01*
X136617559Y-73482200D01*
X136600163Y-73658827D01*
X136565816Y-73772053D01*
X136548643Y-73828667D01*
X136474548Y-73967287D01*
X136464978Y-73985191D01*
X136435648Y-74020929D01*
X136352386Y-74122386D01*
X136250929Y-74205648D01*
X136215191Y-74234978D01*
X136215189Y-74234979D01*
X136058667Y-74318643D01*
X136002053Y-74335816D01*
X135888827Y-74370163D01*
X135822643Y-74376681D01*
X135756460Y-74383200D01*
X135667940Y-74383200D01*
X135601757Y-74376681D01*
X135535573Y-74370163D01*
X135422347Y-74335816D01*
X135365733Y-74318643D01*
X135209211Y-74234979D01*
X135209209Y-74234978D01*
X135173471Y-74205648D01*
X135072014Y-74122386D01*
X134988752Y-74020929D01*
X134959422Y-73985191D01*
X134949852Y-73967287D01*
X134875757Y-73828667D01*
X134858584Y-73772053D01*
X134824237Y-73658827D01*
X134806841Y-73482200D01*
X134824237Y-73305573D01*
X134875757Y-73135734D01*
X134875757Y-73135733D01*
X134959421Y-72979211D01*
X134959422Y-72979209D01*
X134988752Y-72943471D01*
X135072014Y-72842014D01*
X135173471Y-72758752D01*
X135209209Y-72729422D01*
X135227113Y-72719852D01*
X135365733Y-72645757D01*
X135422347Y-72628584D01*
X135535573Y-72594237D01*
X135601757Y-72587719D01*
X135667940Y-72581200D01*
X135756460Y-72581200D01*
X135822643Y-72587719D01*
X135822643Y-72587719D01*
G37*
G36*
X135822643Y-70047719D02*
X135888827Y-70054237D01*
X136002053Y-70088584D01*
X136058667Y-70105757D01*
X136197287Y-70179852D01*
X136215191Y-70189422D01*
X136250929Y-70218752D01*
X136352386Y-70302014D01*
X136435648Y-70403471D01*
X136464978Y-70439209D01*
X136464979Y-70439211D01*
X136548643Y-70595733D01*
X136548643Y-70595734D01*
X136600163Y-70765573D01*
X136617559Y-70942200D01*
X136600163Y-71118827D01*
X136565816Y-71232053D01*
X136548643Y-71288667D01*
X136474548Y-71427287D01*
X136464978Y-71445191D01*
X136435648Y-71480929D01*
X136352386Y-71582386D01*
X136250929Y-71665648D01*
X136215191Y-71694978D01*
X136215189Y-71694979D01*
X136058667Y-71778643D01*
X136002053Y-71795816D01*
X135888827Y-71830163D01*
X135822642Y-71836682D01*
X135756460Y-71843200D01*
X135667940Y-71843200D01*
X135601758Y-71836682D01*
X135535573Y-71830163D01*
X135422347Y-71795816D01*
X135365733Y-71778643D01*
X135209211Y-71694979D01*
X135209209Y-71694978D01*
X135173471Y-71665648D01*
X135072014Y-71582386D01*
X134988752Y-71480929D01*
X134959422Y-71445191D01*
X134949852Y-71427287D01*
X134875757Y-71288667D01*
X134858584Y-71232053D01*
X134824237Y-71118827D01*
X134806841Y-70942200D01*
X134824237Y-70765573D01*
X134875757Y-70595734D01*
X134875757Y-70595733D01*
X134959421Y-70439211D01*
X134959422Y-70439209D01*
X134988752Y-70403471D01*
X135072014Y-70302014D01*
X135173471Y-70218752D01*
X135209209Y-70189422D01*
X135227113Y-70179852D01*
X135365733Y-70105757D01*
X135422347Y-70088584D01*
X135535573Y-70054237D01*
X135601757Y-70047719D01*
X135667940Y-70041200D01*
X135756460Y-70041200D01*
X135822643Y-70047719D01*
X135822643Y-70047719D01*
G37*
G36*
X135822642Y-67507718D02*
X135888827Y-67514237D01*
X136002053Y-67548584D01*
X136058667Y-67565757D01*
X136197287Y-67639852D01*
X136215191Y-67649422D01*
X136250929Y-67678752D01*
X136352386Y-67762014D01*
X136435648Y-67863471D01*
X136464978Y-67899209D01*
X136464979Y-67899211D01*
X136548643Y-68055733D01*
X136548643Y-68055734D01*
X136600163Y-68225573D01*
X136617559Y-68402200D01*
X136600163Y-68578827D01*
X136565816Y-68692053D01*
X136548643Y-68748667D01*
X136474548Y-68887287D01*
X136464978Y-68905191D01*
X136435648Y-68940929D01*
X136352386Y-69042386D01*
X136250929Y-69125648D01*
X136215191Y-69154978D01*
X136215189Y-69154979D01*
X136058667Y-69238643D01*
X136002053Y-69255816D01*
X135888827Y-69290163D01*
X135822642Y-69296682D01*
X135756460Y-69303200D01*
X135667940Y-69303200D01*
X135601758Y-69296682D01*
X135535573Y-69290163D01*
X135422347Y-69255816D01*
X135365733Y-69238643D01*
X135209211Y-69154979D01*
X135209209Y-69154978D01*
X135173471Y-69125648D01*
X135072014Y-69042386D01*
X134988752Y-68940929D01*
X134959422Y-68905191D01*
X134949852Y-68887287D01*
X134875757Y-68748667D01*
X134858584Y-68692053D01*
X134824237Y-68578827D01*
X134806841Y-68402200D01*
X134824237Y-68225573D01*
X134875757Y-68055734D01*
X134875757Y-68055733D01*
X134959421Y-67899211D01*
X134959422Y-67899209D01*
X134988752Y-67863471D01*
X135072014Y-67762014D01*
X135173471Y-67678752D01*
X135209209Y-67649422D01*
X135227113Y-67639852D01*
X135365733Y-67565757D01*
X135422347Y-67548584D01*
X135535573Y-67514237D01*
X135601758Y-67507718D01*
X135667940Y-67501200D01*
X135756460Y-67501200D01*
X135822642Y-67507718D01*
X135822642Y-67507718D01*
G37*
M02*
